<?xml version="1.0" encoding="UTF-8" standalone="no"?><svg xmlns="http://www.w3.org/2000/svg" xmlns:xlink="http://www.w3.org/1999/xlink" contentScriptType="application/ecmascript" contentStyleType="text/css" height="1015px" preserveAspectRatio="none" style="width:2624px;height:1015px;background:#FFFFFF;" version="1.1" viewBox="0 0 2624 1015" width="2624px" zoomAndPan="magnify"><defs><filter height="300%" id="fyvlwxengwp5d" width="300%" x="-1" y="-1"><feGaussianBlur result="blurOut" stdDeviation="2.0"/><feColorMatrix in="blurOut" result="blurOut2" type="matrix" values="0 0 0 0 0 0 0 0 0 0 0 0 0 0 0 0 0 0 .4 0"/><feOffset dx="4.0" dy="4.0" in="blurOut2" result="blurOut3"/><feBlend in="SourceGraphic" in2="blurOut3" mode="normal"/></filter></defs><g><!--MD5=[a4a33f44292f2e8d87ec7a9be8b74082]
cluster Game Class Diagram (Detail)--><polygon fill="#FFFFFF" filter="url(#fyvlwxengwp5d)" points="16,6,230,6,237,28.4883,2607,28.4883,2607,1008,16,1008,16,6" style="stroke:#000000;stroke-width:1.5;"/><line style="stroke:#000000;stroke-width:1.5;" x1="16" x2="237" y1="28.4883" y2="28.4883"/><text fill="#000000" font-family="sans-serif" font-size="14" font-weight="bold" lengthAdjust="spacing" textLength="208" x="20" y="21.5352">Game Class Diagram (Detail)</text><!--MD5=[be3d1a618a7e0326f2c9d76d37ef6298]
cluster Rules--><polygon fill="#FFFFFF" filter="url(#fyvlwxengwp5d)" points="176,168,186,158,653,158,653,443,643,453,176,453,176,168" style="stroke:#000000;stroke-width:1.5;"/><line style="stroke:#000000;stroke-width:1.5;" x1="643" x2="653" y1="168" y2="158"/><line style="stroke:#000000;stroke-width:1.5;" x1="176" x2="643" y1="168" y2="168"/><line style="stroke:#000000;stroke-width:1.5;" x1="643" x2="643" y1="168" y2="453"/><text fill="#000000" font-family="sans-serif" font-size="14" font-weight="bold" lengthAdjust="spacing" textLength="40" x="390.5" y="184.5352">Rules</text><!--MD5=[0ba1dcf811818f640fc389b59dfbae80]
cluster Player--><polygon fill="#FFFFFF" filter="url(#fyvlwxengwp5d)" points="693,168,703,158,976,158,976,443,966,453,693,453,693,168" style="stroke:#000000;stroke-width:1.5;"/><line style="stroke:#000000;stroke-width:1.5;" x1="966" x2="976" y1="168" y2="158"/><line style="stroke:#000000;stroke-width:1.5;" x1="693" x2="966" y1="168" y2="168"/><line style="stroke:#000000;stroke-width:1.5;" x1="966" x2="966" y1="168" y2="453"/><text fill="#000000" font-family="sans-serif" font-size="14" font-weight="bold" lengthAdjust="spacing" textLength="44" x="808.5" y="184.5352">Player</text><!--MD5=[e4eeac980f7c60d0b9b4864e7df151e6]
cluster Board--><polygon fill="#FFFFFF" filter="url(#fyvlwxengwp5d)" points="1016,168,1026,158,2575,158,2575,966,2565,976,1016,976,1016,168" style="stroke:#000000;stroke-width:1.5;"/><line style="stroke:#000000;stroke-width:1.5;" x1="2565" x2="2575" y1="168" y2="158"/><line style="stroke:#000000;stroke-width:1.5;" x1="1016" x2="2565" y1="168" y2="168"/><line style="stroke:#000000;stroke-width:1.5;" x1="2565" x2="2565" y1="168" y2="976"/><text fill="#000000" font-family="sans-serif" font-size="14" font-weight="bold" lengthAdjust="spacing" textLength="41" x="1771" y="184.5352">Board</text><!--MD5=[20f1063ca791b0a7f2b403fe72d8cfae]
cluster Square--><polygon fill="#FFFFFF" filter="url(#fyvlwxengwp5d)" points="1064,528,1074,518,1445,518,1445,886,1435,896,1064,896,1064,528" style="stroke:#000000;stroke-width:1.5;"/><line style="stroke:#000000;stroke-width:1.5;" x1="1435" x2="1445" y1="528" y2="518"/><line style="stroke:#000000;stroke-width:1.5;" x1="1064" x2="1435" y1="528" y2="528"/><line style="stroke:#000000;stroke-width:1.5;" x1="1435" x2="1435" y1="528" y2="896"/><text fill="#000000" font-family="sans-serif" font-size="14" font-weight="bold" lengthAdjust="spacing" textLength="48" x="1226.5" y="544.5352">Square</text><!--MD5=[ebd0f3325ff55015b47dc6fefa938bc6]
cluster Ship--><polygon fill="#FFFFFF" filter="url(#fyvlwxengwp5d)" points="1485,339,1495,329,2535,329,2535,926,2525,936,1485,936,1485,339" style="stroke:#000000;stroke-width:1.5;"/><line style="stroke:#000000;stroke-width:1.5;" x1="2525" x2="2535" y1="339" y2="329"/><line style="stroke:#000000;stroke-width:1.5;" x1="1485" x2="2525" y1="339" y2="339"/><line style="stroke:#000000;stroke-width:1.5;" x1="2525" x2="2525" y1="339" y2="936"/><text fill="#000000" font-family="sans-serif" font-size="14" font-weight="bold" lengthAdjust="spacing" textLength="31" x="1990.5" y="355.5352">Ship</text><!--MD5=[2975c4dece04002023c4a216e4e2b6b7]
cluster Ship_Type--><polygon fill="#FFFFFF" filter="url(#fyvlwxengwp5d)" points="1815,528,1825,518,2495,518,2495,886,2485,896,1815,896,1815,528" style="stroke:#000000;stroke-width:1.5;"/><line style="stroke:#000000;stroke-width:1.5;" x1="2485" x2="2495" y1="528" y2="518"/><line style="stroke:#000000;stroke-width:1.5;" x1="1815" x2="2485" y1="528" y2="528"/><line style="stroke:#000000;stroke-width:1.5;" x1="2485" x2="2485" y1="528" y2="896"/><text fill="#000000" font-family="sans-serif" font-size="14" font-weight="bold" lengthAdjust="spacing" textLength="73" x="2114.5" y="544.5352">Ship_Type</text><!--MD5=[305218153d33047fc0f139a7ddc942d1]
entity Game_obj--><rect fill="#FEFECE" filter="url(#fyvlwxengwp5d)" height="46.4883" style="stroke:#A80036;stroke-width:1.5;" width="108" x="388" y="41"/><rect fill="#FEFECE" height="10" style="stroke:#A80036;stroke-width:1.5;" width="15" x="476" y="46"/><rect fill="#FEFECE" height="2" style="stroke:#A80036;stroke-width:1.5;" width="4" x="474" y="48"/><rect fill="#FEFECE" height="2" style="stroke:#A80036;stroke-width:1.5;" width="4" x="474" y="52"/><text fill="#000000" font-family="sans-serif" font-size="14" lengthAdjust="spacing" textLength="68" x="403" y="74.5352">Game_obj</text><!--MD5=[7f288c97821f0e3769ad2f992cdcb754]
entity game_id--><ellipse cx="344" cy="64" fill="#FEFECE" filter="url(#fyvlwxengwp5d)" rx="8" ry="8" style="stroke:#A80036;stroke-width:1.5;"/><text fill="#000000" font-family="sans-serif" font-size="14" lengthAdjust="spacing" textLength="58" x="315" y="94.5352">game_id</text><!--MD5=[431a2edf4812d542ae14cefd1d3ebe0b]
entity turn--><ellipse cx="540" cy="64" fill="#FEFECE" filter="url(#fyvlwxengwp5d)" rx="8" ry="8" style="stroke:#A80036;stroke-width:1.5;"/><text fill="#000000" font-family="sans-serif" font-size="14" lengthAdjust="spacing" textLength="29" x="525.5" y="94.5352">turn</text><!--MD5=[b03d5724fb3bba77613173b624e4549a]
entity game_state--><ellipse cx="99" cy="229" fill="#FEFECE" filter="url(#fyvlwxengwp5d)" rx="8" ry="8" style="stroke:#A80036;stroke-width:1.5;"/><text fill="#000000" font-family="sans-serif" font-size="14" lengthAdjust="spacing" textLength="78" x="60" y="259.5352">game_state</text><!--MD5=[4e4917e96129809a78f0ee28944753f7]
entity Game_State--><rect fill="#FEFECE" filter="url(#fyvlwxengwp5d)" height="46.4883" style="stroke:#A80036;stroke-width:1.5;" width="120" x="32" y="377"/><rect fill="#FEFECE" height="10" style="stroke:#A80036;stroke-width:1.5;" width="15" x="132" y="382"/><rect fill="#FEFECE" height="2" style="stroke:#A80036;stroke-width:1.5;" width="4" x="130" y="384"/><rect fill="#FEFECE" height="2" style="stroke:#A80036;stroke-width:1.5;" width="4" x="130" y="388"/><text fill="#000000" font-family="sans-serif" font-size="14" lengthAdjust="spacing" textLength="80" x="47" y="410.5352">Game_State</text><!--MD5=[03a34ce386114c2cfde3d7f13fdd0ce7]
entity IDLE--><ellipse cx="59" cy="589" fill="#FEFECE" filter="url(#fyvlwxengwp5d)" rx="8" ry="8" style="stroke:#A80036;stroke-width:1.5;"/><text fill="#000000" font-family="sans-serif" font-size="14" lengthAdjust="spacing" textLength="29" x="44.5" y="619.5352">IDLE</text><!--MD5=[8892d6045ecf3dc608d9c2fb1f78b74e]
entity STARTED--><ellipse cx="160" cy="589" fill="#FEFECE" filter="url(#fyvlwxengwp5d)" rx="8" ry="8" style="stroke:#A80036;stroke-width:1.5;"/><text fill="#000000" font-family="sans-serif" font-size="14" lengthAdjust="spacing" textLength="63" x="128.5" y="619.5352">STARTED</text><!--MD5=[b40493c9c947aa1513c172eb1b797edf]
entity OVER--><ellipse cx="261" cy="589" fill="#FEFECE" filter="url(#fyvlwxengwp5d)" rx="8" ry="8" style="stroke:#A80036;stroke-width:1.5;"/><text fill="#000000" font-family="sans-serif" font-size="14" lengthAdjust="spacing" textLength="37" x="242.5" y="619.5352">OVER</text><!--MD5=[ed8f51c30d34c09f5bc55d75eafb66b8]
entity Rules_obj--><rect fill="#FEFECE" filter="url(#fyvlwxengwp5d)" height="46.4883" style="stroke:#A80036;stroke-width:1.5;" width="106" x="272" y="206"/><rect fill="#FEFECE" height="10" style="stroke:#A80036;stroke-width:1.5;" width="15" x="358" y="211"/><rect fill="#FEFECE" height="2" style="stroke:#A80036;stroke-width:1.5;" width="4" x="356" y="213"/><rect fill="#FEFECE" height="2" style="stroke:#A80036;stroke-width:1.5;" width="4" x="356" y="217"/><text fill="#000000" font-family="sans-serif" font-size="14" lengthAdjust="spacing" textLength="66" x="287" y="239.5352">Rules_obj</text><!--MD5=[4c81ffef7093eebfa12e9b66630fa14b]
entity rules_type--><ellipse cx="422" cy="229" fill="#FEFECE" filter="url(#fyvlwxengwp5d)" rx="8" ry="8" style="stroke:#A80036;stroke-width:1.5;"/><text fill="#000000" font-family="sans-serif" font-size="14" lengthAdjust="spacing" textLength="70" x="387" y="259.5352">rules_type</text><!--MD5=[90ad790a221bd3e1af61891b11ed4567]
entity ships--><ellipse cx="228" cy="229" fill="#FEFECE" filter="url(#fyvlwxengwp5d)" rx="8" ry="8" style="stroke:#A80036;stroke-width:1.5;"/><text fill="#000000" font-family="sans-serif" font-size="14" lengthAdjust="spacing" textLength="36" x="210" y="259.5352">ships</text><!--MD5=[c01ca6396ea54a8cab2102db9244e337]
entity boardSize--><ellipse cx="325" cy="400" fill="#FEFECE" filter="url(#fyvlwxengwp5d)" rx="8" ry="8" style="stroke:#A80036;stroke-width:1.5;"/><text fill="#000000" font-family="sans-serif" font-size="14" lengthAdjust="spacing" textLength="69" x="290.5" y="430.5352">boardSize</text><!--MD5=[54d9156958d7fca9cab777310f8835ba]
entity Rules_Type--><rect fill="#FEFECE" filter="url(#fyvlwxengwp5d)" height="46.4883" style="stroke:#A80036;stroke-width:1.5;" width="117" x="511.5" y="206"/><rect fill="#FEFECE" height="10" style="stroke:#A80036;stroke-width:1.5;" width="15" x="608.5" y="211"/><rect fill="#FEFECE" height="2" style="stroke:#A80036;stroke-width:1.5;" width="4" x="606.5" y="213"/><rect fill="#FEFECE" height="2" style="stroke:#A80036;stroke-width:1.5;" width="4" x="606.5" y="217"/><text fill="#000000" font-family="sans-serif" font-size="14" lengthAdjust="spacing" textLength="77" x="526.5" y="239.5352">Rules_Type</text><!--MD5=[e6f891f2995495ad934825c3406aa24f]
entity CLASSIC--><ellipse cx="587" cy="400" fill="#FEFECE" filter="url(#fyvlwxengwp5d)" rx="8" ry="8" style="stroke:#A80036;stroke-width:1.5;"/><text fill="#000000" font-family="sans-serif" font-size="14" lengthAdjust="spacing" textLength="57" x="558.5" y="430.5352">CLASSIC</text><!--MD5=[a05ac800f4e843963d661485be43d725]
entity BASIC--><ellipse cx="488" cy="400" fill="#FEFECE" filter="url(#fyvlwxengwp5d)" rx="8" ry="8" style="stroke:#A80036;stroke-width:1.5;"/><text fill="#000000" font-family="sans-serif" font-size="14" lengthAdjust="spacing" textLength="40" x="468" y="430.5352">BASIC</text><!--MD5=[1943f5ddbc811cd6163393e687e53f0d]
entity Player_obj--><rect fill="#FEFECE" filter="url(#fyvlwxengwp5d)" height="46.4883" style="stroke:#A80036;stroke-width:1.5;" width="110" x="789" y="206"/><rect fill="#FEFECE" height="10" style="stroke:#A80036;stroke-width:1.5;" width="15" x="879" y="211"/><rect fill="#FEFECE" height="2" style="stroke:#A80036;stroke-width:1.5;" width="4" x="877" y="213"/><rect fill="#FEFECE" height="2" style="stroke:#A80036;stroke-width:1.5;" width="4" x="877" y="217"/><text fill="#000000" font-family="sans-serif" font-size="14" lengthAdjust="spacing" textLength="70" x="804" y="239.5352">Player_obj</text><!--MD5=[219d1b7ba5ff185b91345e85ec5bc28d]
entity name--><ellipse cx="745" cy="229" fill="#FEFECE" filter="url(#fyvlwxengwp5d)" rx="8" ry="8" style="stroke:#A80036;stroke-width:1.5;"/><text fill="#000000" font-family="sans-serif" font-size="14" lengthAdjust="spacing" textLength="38" x="726" y="259.5352">name</text><!--MD5=[0daf287d247edc209e31f80828a70367]
entity socket--><ellipse cx="943" cy="229" fill="#FEFECE" filter="url(#fyvlwxengwp5d)" rx="8" ry="8" style="stroke:#A80036;stroke-width:1.5;"/><text fill="#000000" font-family="sans-serif" font-size="14" lengthAdjust="spacing" textLength="44" x="921" y="259.5352">socket</text><!--MD5=[9b187ad3cfb0ee1dbe57a7c5e875ca7f]
entity player_id--><ellipse cx="799" cy="400" fill="#FEFECE" filter="url(#fyvlwxengwp5d)" rx="8" ry="8" style="stroke:#A80036;stroke-width:1.5;"/><text fill="#000000" font-family="sans-serif" font-size="14" lengthAdjust="spacing" textLength="62" x="768" y="430.5352">player_id</text><!--MD5=[55a3d76f9f066a914db2e6a0219879c4]
entity ready--><ellipse cx="900" cy="400" fill="#FEFECE" filter="url(#fyvlwxengwp5d)" rx="8" ry="8" style="stroke:#A80036;stroke-width:1.5;"/><text fill="#000000" font-family="sans-serif" font-size="14" lengthAdjust="spacing" textLength="38" x="881" y="430.5352">ready</text><!--MD5=[a0ef24a15e3bea77dac9f4d65feb601a]
entity Board_obj--><rect fill="#FEFECE" filter="url(#fyvlwxengwp5d)" height="46.4883" style="stroke:#A80036;stroke-width:1.5;" width="109" x="1275.5" y="206"/><rect fill="#FEFECE" height="10" style="stroke:#A80036;stroke-width:1.5;" width="15" x="1364.5" y="211"/><rect fill="#FEFECE" height="2" style="stroke:#A80036;stroke-width:1.5;" width="4" x="1362.5" y="213"/><rect fill="#FEFECE" height="2" style="stroke:#A80036;stroke-width:1.5;" width="4" x="1362.5" y="217"/><text fill="#000000" font-family="sans-serif" font-size="14" lengthAdjust="spacing" textLength="69" x="1290.5" y="239.5352">Board_obj</text><!--MD5=[7510fdadd9abbf9387b40deca70dffe3]
entity board_id--><ellipse cx="1231" cy="229" fill="#FEFECE" filter="url(#fyvlwxengwp5d)" rx="8" ry="8" style="stroke:#A80036;stroke-width:1.5;"/><text fill="#000000" font-family="sans-serif" font-size="14" lengthAdjust="spacing" textLength="61" x="1200.5" y="259.5352">board_id</text><!--MD5=[6a8dee2804e2518456c89a1d133c3ec2]
entity grid--><rect fill="#FEFECE" filter="url(#fyvlwxengwp5d)" height="46.4883" style="stroke:#A80036;stroke-width:1.5;" width="68" x="1229" y="377"/><rect fill="#FEFECE" height="10" style="stroke:#A80036;stroke-width:1.5;" width="15" x="1277" y="382"/><rect fill="#FEFECE" height="2" style="stroke:#A80036;stroke-width:1.5;" width="4" x="1275" y="384"/><rect fill="#FEFECE" height="2" style="stroke:#A80036;stroke-width:1.5;" width="4" x="1275" y="388"/><text fill="#000000" font-family="sans-serif" font-size="14" lengthAdjust="spacing" textLength="28" x="1244" y="410.5352">grid</text><!--MD5=[b2a1ce29d02b76260cabe677d922da26]
entity size--><ellipse cx="1429" cy="229" fill="#FEFECE" filter="url(#fyvlwxengwp5d)" rx="8" ry="8" style="stroke:#A80036;stroke-width:1.5;"/><text fill="#000000" font-family="sans-serif" font-size="14" lengthAdjust="spacing" textLength="27" x="1415.5" y="259.5352">size</text><!--MD5=[a1851de85fc20c9aa078a21aad705dbd]
entity Square_obj--><rect fill="#FEFECE" filter="url(#fyvlwxengwp5d)" height="46.4883" style="stroke:#A80036;stroke-width:1.5;" width="117" x="1160.5" y="566"/><rect fill="#FEFECE" height="10" style="stroke:#A80036;stroke-width:1.5;" width="15" x="1257.5" y="571"/><rect fill="#FEFECE" height="2" style="stroke:#A80036;stroke-width:1.5;" width="4" x="1255.5" y="573"/><rect fill="#FEFECE" height="2" style="stroke:#A80036;stroke-width:1.5;" width="4" x="1255.5" y="577"/><text fill="#000000" font-family="sans-serif" font-size="14" lengthAdjust="spacing" textLength="77" x="1175.5" y="599.5352">Square_obj</text><!--MD5=[fd5a7242b595d8c06d3355f311794d63]
entity square_state--><ellipse cx="1322" cy="589" fill="#FEFECE" filter="url(#fyvlwxengwp5d)" rx="8" ry="8" style="stroke:#A80036;stroke-width:1.5;"/><text fill="#000000" font-family="sans-serif" font-size="14" lengthAdjust="spacing" textLength="87" x="1278.5" y="619.5352">square_state</text><!--MD5=[15e723626a93808a9cd473ce1177f844]
entity col--><ellipse cx="1116" cy="589" fill="#FEFECE" filter="url(#fyvlwxengwp5d)" rx="8" ry="8" style="stroke:#A80036;stroke-width:1.5;"/><text fill="#000000" font-family="sans-serif" font-size="14" lengthAdjust="spacing" textLength="20" x="1106" y="619.5352">col</text><!--MD5=[f0fb134033a07cde7959bb344d886e5b]
entity row--><ellipse cx="1186" cy="724" fill="#FEFECE" filter="url(#fyvlwxengwp5d)" rx="8" ry="8" style="stroke:#A80036;stroke-width:1.5;"/><text fill="#000000" font-family="sans-serif" font-size="14" lengthAdjust="spacing" textLength="26" x="1173" y="754.5352">row</text><!--MD5=[05555f6c8ffdc9a0c74087cf94380717]
entity Square_State--><rect fill="#FEFECE" filter="url(#fyvlwxengwp5d)" height="46.4883" style="stroke:#A80036;stroke-width:1.5;" width="129" x="1248.5" y="701"/><rect fill="#FEFECE" height="10" style="stroke:#A80036;stroke-width:1.5;" width="15" x="1357.5" y="706"/><rect fill="#FEFECE" height="2" style="stroke:#A80036;stroke-width:1.5;" width="4" x="1355.5" y="708"/><rect fill="#FEFECE" height="2" style="stroke:#A80036;stroke-width:1.5;" width="4" x="1355.5" y="712"/><text fill="#000000" font-family="sans-serif" font-size="14" lengthAdjust="spacing" textLength="89" x="1263.5" y="734.5352">Square_State</text><!--MD5=[51321f499d67ac0803cbfbded6abd188]
entity empty--><ellipse cx="1125" cy="843" fill="#FEFECE" filter="url(#fyvlwxengwp5d)" rx="8" ry="8" style="stroke:#A80036;stroke-width:1.5;"/><text fill="#000000" font-family="sans-serif" font-size="14" lengthAdjust="spacing" textLength="42" x="1104" y="873.5352">empty</text><!--MD5=[34b5c8738c258adb84faeb88e86fdae3]
entity filled--><ellipse cx="1216" cy="843" fill="#FEFECE" filter="url(#fyvlwxengwp5d)" rx="8" ry="8" style="stroke:#A80036;stroke-width:1.5;"/><text fill="#000000" font-family="sans-serif" font-size="14" lengthAdjust="spacing" textLength="34" x="1199" y="873.5352">filled</text><!--MD5=[bced5022a2a71b159a4548e047953711]
entity hit--><ellipse cx="1305" cy="843" fill="#FEFECE" filter="url(#fyvlwxengwp5d)" rx="8" ry="8" style="stroke:#A80036;stroke-width:1.5;"/><text fill="#000000" font-family="sans-serif" font-size="14" lengthAdjust="spacing" textLength="18" x="1296" y="873.5352">hit</text><!--MD5=[bf175e8f5e00a1f490ba56d6fa8f877f]
entity miss--><ellipse cx="1394" cy="843" fill="#FEFECE" filter="url(#fyvlwxengwp5d)" rx="8" ry="8" style="stroke:#A80036;stroke-width:1.5;"/><text fill="#000000" font-family="sans-serif" font-size="14" lengthAdjust="spacing" textLength="31" x="1378.5" y="873.5352">miss</text><!--MD5=[a5a3ea9213195ec6930fc381eb5ca0ed]
entity Ship_obj--><rect fill="#FEFECE" filter="url(#fyvlwxengwp5d)" height="46.4883" style="stroke:#A80036;stroke-width:1.5;" width="99" x="1609.5" y="377"/><rect fill="#FEFECE" height="10" style="stroke:#A80036;stroke-width:1.5;" width="15" x="1688.5" y="382"/><rect fill="#FEFECE" height="2" style="stroke:#A80036;stroke-width:1.5;" width="4" x="1686.5" y="384"/><rect fill="#FEFECE" height="2" style="stroke:#A80036;stroke-width:1.5;" width="4" x="1686.5" y="388"/><text fill="#000000" font-family="sans-serif" font-size="14" lengthAdjust="spacing" textLength="59" x="1624.5" y="410.5352">Ship_obj</text><!--MD5=[b5d72522e10494f4cf406fbed118b4db]
entity ship_state--><ellipse cx="1659" cy="589" fill="#FEFECE" filter="url(#fyvlwxengwp5d)" rx="8" ry="8" style="stroke:#A80036;stroke-width:1.5;"/><text fill="#000000" font-family="sans-serif" font-size="14" lengthAdjust="spacing" textLength="69" x="1624.5" y="619.5352">ship_state</text><!--MD5=[2bab1a13c652ceb0a022bf6398bf027b]
entity Ship_State--><rect fill="#FEFECE" filter="url(#fyvlwxengwp5d)" height="46.4883" style="stroke:#A80036;stroke-width:1.5;" width="111" x="1603.5" y="701"/><rect fill="#FEFECE" height="10" style="stroke:#A80036;stroke-width:1.5;" width="15" x="1694.5" y="706"/><rect fill="#FEFECE" height="2" style="stroke:#A80036;stroke-width:1.5;" width="4" x="1692.5" y="708"/><rect fill="#FEFECE" height="2" style="stroke:#A80036;stroke-width:1.5;" width="4" x="1692.5" y="712"/><text fill="#000000" font-family="sans-serif" font-size="14" lengthAdjust="spacing" textLength="71" x="1618.5" y="734.5352">Ship_State</text><!--MD5=[bd511436d710a7530e4c72249f567ee6]
entity WHOLE--><ellipse cx="1549" cy="843" fill="#FEFECE" filter="url(#fyvlwxengwp5d)" rx="8" ry="8" style="stroke:#A80036;stroke-width:1.5;"/><text fill="#000000" font-family="sans-serif" font-size="14" lengthAdjust="spacing" textLength="48" x="1525" y="873.5352">WHOLE</text><!--MD5=[b550dd6fa94c4fca37628e2df04ce0c7]
entity DAMAGED--><ellipse cx="1659" cy="843" fill="#FEFECE" filter="url(#fyvlwxengwp5d)" rx="8" ry="8" style="stroke:#A80036;stroke-width:1.5;"/><text fill="#000000" font-family="sans-serif" font-size="14" lengthAdjust="spacing" textLength="70" x="1624" y="873.5352">DAMAGED</text><!--MD5=[07f61ea4f374380ff8474959acfc2e86]
entity SUNK--><ellipse cx="1764" cy="843" fill="#FEFECE" filter="url(#fyvlwxengwp5d)" rx="8" ry="8" style="stroke:#A80036;stroke-width:1.5;"/><text fill="#000000" font-family="sans-serif" font-size="14" lengthAdjust="spacing" textLength="37" x="1745.5" y="873.5352">SUNK</text><!--MD5=[6bb0de84a7264f74dc332e1206d1d7c6]
entity Ship_Type_Obj--><rect fill="#FEFECE" filter="url(#fyvlwxengwp5d)" height="46.4883" style="stroke:#A80036;stroke-width:1.5;" width="141" x="1928.5" y="566"/><rect fill="#FEFECE" height="10" style="stroke:#A80036;stroke-width:1.5;" width="15" x="2049.5" y="571"/><rect fill="#FEFECE" height="2" style="stroke:#A80036;stroke-width:1.5;" width="4" x="2047.5" y="573"/><rect fill="#FEFECE" height="2" style="stroke:#A80036;stroke-width:1.5;" width="4" x="2047.5" y="577"/><text fill="#000000" font-family="sans-serif" font-size="14" lengthAdjust="spacing" textLength="101" x="1943.5" y="599.5352">Ship_Type_Obj</text><!--MD5=[2496ab52c378c74988f6f339c4373d4d]
entity ship_descriptor--><ellipse cx="2130" cy="589" fill="#FEFECE" filter="url(#fyvlwxengwp5d)" rx="8" ry="8" style="stroke:#A80036;stroke-width:1.5;"/><text fill="#000000" font-family="sans-serif" font-size="14" lengthAdjust="spacing" textLength="106" x="2077" y="619.5352">ship_descriptor</text><!--MD5=[f33cbe344eca0d9e55b59a7670e2dd41]
entity ship_name--><ellipse cx="1884" cy="589" fill="#FEFECE" filter="url(#fyvlwxengwp5d)" rx="8" ry="8" style="stroke:#A80036;stroke-width:1.5;"/><text fill="#000000" font-family="sans-serif" font-size="14" lengthAdjust="spacing" textLength="74" x="1847" y="619.5352">ship_name</text><!--MD5=[df039b19319cf42f118ce293b553d438]
entity ship_size--><ellipse cx="1987" cy="724" fill="#FEFECE" filter="url(#fyvlwxengwp5d)" rx="8" ry="8" style="stroke:#A80036;stroke-width:1.5;"/><text fill="#000000" font-family="sans-serif" font-size="14" lengthAdjust="spacing" textLength="63" x="1955.5" y="754.5352">ship_size</text><!--MD5=[b0e520c64c4a9b9b8fa2e739f06c782f]
entity Ship_Descriptor--><rect fill="#FEFECE" filter="url(#fyvlwxengwp5d)" height="46.4883" style="stroke:#A80036;stroke-width:1.5;" width="148" x="2061" y="701"/><rect fill="#FEFECE" height="10" style="stroke:#A80036;stroke-width:1.5;" width="15" x="2189" y="706"/><rect fill="#FEFECE" height="2" style="stroke:#A80036;stroke-width:1.5;" width="4" x="2187" y="708"/><rect fill="#FEFECE" height="2" style="stroke:#A80036;stroke-width:1.5;" width="4" x="2187" y="712"/><text fill="#000000" font-family="sans-serif" font-size="14" lengthAdjust="spacing" textLength="108" x="2076" y="734.5352">Ship_Descriptor</text><!--MD5=[70014271507a242ac7f1805e91fc3a57]
entity CARRIER--><ellipse cx="1884" cy="843" fill="#FEFECE" filter="url(#fyvlwxengwp5d)" rx="8" ry="8" style="stroke:#A80036;stroke-width:1.5;"/><text fill="#000000" font-family="sans-serif" font-size="14" lengthAdjust="spacing" textLength="59" x="1854.5" y="873.5352">CARRIER</text><!--MD5=[44e69c1de8fa85f90b2d2eee8ee57158]
entity BATTLESHIP--><ellipse cx="2004" cy="843" fill="#FEFECE" filter="url(#fyvlwxengwp5d)" rx="8" ry="8" style="stroke:#A80036;stroke-width:1.5;"/><text fill="#000000" font-family="sans-serif" font-size="14" lengthAdjust="spacing" textLength="81" x="1963.5" y="873.5352">BATTLESHIP</text><!--MD5=[82379069ae411ef6615a391ab87b0246]
entity DESTROYER--><ellipse cx="2135" cy="843" fill="#FEFECE" filter="url(#fyvlwxengwp5d)" rx="8" ry="8" style="stroke:#A80036;stroke-width:1.5;"/><text fill="#000000" font-family="sans-serif" font-size="14" lengthAdjust="spacing" textLength="81" x="2094.5" y="873.5352">DESTROYER</text><!--MD5=[f9af19fd3f30e2be42fb124d31d89fbc]
entity SUBMARINE--><ellipse cx="2265" cy="843" fill="#FEFECE" filter="url(#fyvlwxengwp5d)" rx="8" ry="8" style="stroke:#A80036;stroke-width:1.5;"/><text fill="#000000" font-family="sans-serif" font-size="14" lengthAdjust="spacing" textLength="79" x="2225.5" y="873.5352">SUBMARINE</text><!--MD5=[e5b453c8e0b202a754ee4208b55c3bd5]
entity PathHoverColor--><ellipse cx="2409" cy="843" fill="#FEFECE" filter="url(#fyvlwxengwp5d)" rx="8" ry="8" style="stroke:#A80036;stroke-width:1.5;"/><text fill="#000000" font-family="sans-serif" font-size="14" lengthAdjust="spacing" textLength="108" x="2355" y="873.5352">PathHoverColor</text><!--MD5=[27189ad4e114daa594f890d2fcb0c642]
link game_id to Game_obj--><path d="M353.19,64 C364.75,64 376.32,64 387.88,64 " fill="none" id="game_id-Game_obj" style="stroke:#A80036;stroke-width:1.0;"/><!--MD5=[8b11553c6d75ddaed2fb781452cb0aea]
link Game_obj to turn--><path d="M496.36,64 C507.84,64 519.32,64 530.79,64 " fill="none" id="Game_obj-turn" style="stroke:#A80036;stroke-width:1.0;"/><!--MD5=[ba140fe3a6453401ee4fda0d21fe57fe]
link Game_obj to game_state--><path d="M387.95,82.61 C382.25,84.21 376.53,85.71 371,87 C289.04,106.17 256.28,73.85 184,117 C143.92,140.93 116.09,191.55 104.72,215.25 " fill="none" id="Game_obj-to-game_state" style="stroke:#A80036;stroke-width:1.0;"/><polygon fill="#A80036" points="102.55,219.88,109.9985,213.4364,104.6769,215.3549,102.7584,210.0333,102.55,219.88" style="stroke:#A80036;stroke-width:1.0;"/><text fill="#000000" font-family="sans-serif" font-size="13" lengthAdjust="spacing" textLength="34" x="185" y="130.5684">has 1</text><!--MD5=[ab2b1cbadeac5921e9fc391389751681]
link Game_obj to Rules--><path d="M387.93,82.06 C317.93,104.19 204.62,140.22 203,142 C199.81,145.5063 197.1139,149.4244 194.8389,153.6032 C194.2701,154.6479 193.7277,155.7089 193.2104,156.7839 C193.0811,157.0526 192.9534,157.3222 192.8272,157.5927 C192.7641,157.7279 192.7014,157.8633 192.6391,157.9989 " fill="none" id="Game_obj-to-Rules" style="stroke:#A80036;stroke-width:1.0;"/><polygon fill="#A80036" points="192.6391,157.9989,200.0313,151.4908,194.7266,153.4555,192.7618,148.1509,192.6391,157.9989" style="stroke:#A80036;stroke-width:1.0;"/><text fill="#000000" font-family="sans-serif" font-size="13" lengthAdjust="spacing" textLength="34" x="275" y="130.5684">has 1</text><!--MD5=[21d7d2228b2e1fdecb931f28a8431b2a]
link Game_obj to Board--><path d="M496.38,82.72 C502.29,84.31 508.25,85.78 514,87 C712.85,129.08 795.48,34.54 968,142 C987.055,153.87 1000.9175,174.89 1010.0838,193.1775 C1011.2295,195.4634 1012.3019,197.7067 1013.3019,199.884 C1013.8019,200.9727 1014.2838,202.0449 1014.7477,203.0977 C1014.9797,203.6241 1015.2071,204.1457 1015.4301,204.662 C1015.5416,204.9202 1015.652,205.1771 1015.7612,205.4326 C1015.8159,205.5604 1015.8702,205.6878 1015.9243,205.8149 " fill="none" id="Game_obj-to-Board" style="stroke:#A80036;stroke-width:1.0;"/><polygon fill="#A80036" points="1015.9243,205.8149,1016.0817,195.9673,1013.9669,201.214,1008.7202,199.0992,1015.9243,205.8149" style="stroke:#A80036;stroke-width:1.0;"/><text fill="#000000" font-family="sans-serif" font-size="13" lengthAdjust="spacing" textLength="58" x="948" y="130.5684">has &gt;= 2</text><!--MD5=[222ac5dba3c891fd98532c5e4a280664]
link Game_obj to Player--><path d="M496.32,81.38 C548.09,97.74 621.52,123.08 645,142 C662.205,155.86 675.8825,176.47 685.4125,194.0388 C687.795,198.4309 689.9183,202.633 691.7727,206.4921 C692.0045,206.9745 692.232,207.4515 692.4554,207.9229 C692.5671,208.1585 692.6777,208.3928 692.7873,208.6256 C692.8421,208.742 692.8966,208.8581 692.9509,208.9737 " fill="none" id="Game_obj-to-Player" style="stroke:#A80036;stroke-width:1.0;"/><polygon fill="#A80036" points="692.9509,208.9737,692.7504,199.1269,690.8276,204.447,685.5075,202.5242,692.9509,208.9737" style="stroke:#A80036;stroke-width:1.0;"/><text fill="#000000" font-family="sans-serif" font-size="13" lengthAdjust="spacing" textLength="58" x="631" y="130.5684">has &gt;= 2</text><!--MD5=[53aab238e1d779520a686f2a067a2754]
link game_state to Game_State--><path d="M98.66,238.15 C97.67,262 94.76,332.45 93.13,371.74 " fill="none" id="game_state-to-Game_State" style="stroke:#A80036;stroke-width:1.0;"/><polygon fill="#A80036" points="92.92,376.84,97.2775,368.0076,93.1204,371.844,89.284,367.6869,92.92,376.84" style="stroke:#A80036;stroke-width:1.0;"/><text fill="#000000" font-family="sans-serif" font-size="13" lengthAdjust="spacing" textLength="44" x="98" y="301.5684">of type</text><!--MD5=[705935da5599d3bca6ff914a6cecd5b8]
link Game_State to IDLE--><path d="M88.08,423.19 C80.74,464.79 65.22,552.76 60.43,579.87 " fill="none" id="Game_State-IDLE" style="stroke:#A80036;stroke-width:1.0;"/><!--MD5=[82615e567098046e808bd44ae0cfc385]
link Game_State to STARTED--><path d="M100.07,423.19 C115.2,464.79 147.19,552.76 157.04,579.87 " fill="none" id="Game_State-STARTED" style="stroke:#A80036;stroke-width:1.0;"/><!--MD5=[9c559d8f43d655b347c314b91a761760]
link Game_State to OVER--><path d="M126.62,423.02 C153.77,441.59 191.15,470.16 217,502 C237.51,527.26 252.2,563.62 258.12,579.75 " fill="none" id="Game_State-OVER" style="stroke:#A80036;stroke-width:1.0;"/><!--MD5=[6b5e21e0a73bd294f551a91c4a553f99]
link Rules_obj to rules_type--><path d="M378.05,229 C389.61,229 401.17,229 412.73,229 " fill="none" id="Rules_obj-rules_type" style="stroke:#A80036;stroke-width:1.0;"/><!--MD5=[69be0259774b9eab2414a61fc194a8d3]
link ships to Rules_obj--><path d="M237.09,229 C248.65,229 260.21,229 271.78,229 " fill="none" id="ships-Rules_obj" style="stroke:#A80036;stroke-width:1.0;"/><!--MD5=[f08f23e98ac28ed6368036b21ed07484]
link Rules_obj to boardSize--><path d="M325,252.09 C325,290.03 325,365.88 325,390.83 " fill="none" id="Rules_obj-boardSize" style="stroke:#A80036;stroke-width:1.0;"/><!--MD5=[66f26fb144c920e4c01587f5720099be]
link rules_type to Rules_Type--><path d="M431.26,229 C446.27,229 477.16,229 505.99,229 " fill="none" id="rules_type-to-Rules_Type" style="stroke:#A80036;stroke-width:1.0;"/><polygon fill="#A80036" points="511.34,229,502.34,225,506.34,229,502.34,233,511.34,229" style="stroke:#A80036;stroke-width:1.0;"/><text fill="#000000" font-family="sans-serif" font-size="13" lengthAdjust="spacing" textLength="44" x="449.25" y="222.5684">of type</text><!--MD5=[234546b5ae97922c9c4337cfbd2fc72d]
link Rules_Type to CLASSIC--><path d="M572.22,252.09 C576.04,290.03 583.67,365.88 586.18,390.83 " fill="none" id="Rules_Type-CLASSIC" style="stroke:#A80036;stroke-width:1.0;"/><!--MD5=[e8b3cfb0b896e0bd72c6dbccc20af073]
link Rules_Type to BASIC--><path d="M559.28,252.09 C540.87,290.03 504.07,365.88 491.96,390.83 " fill="none" id="Rules_Type-BASIC" style="stroke:#A80036;stroke-width:1.0;"/><!--MD5=[160b3c37d61318b25b5acf5e6645231d]
link name to Player_obj--><path d="M754.28,229 C765.85,229 777.41,229 788.98,229 " fill="none" id="name-Player_obj" style="stroke:#A80036;stroke-width:1.0;"/><!--MD5=[54a381940087716b702e9dc06562dce1]
link Player_obj to socket--><path d="M899.3,229 C910.79,229 922.29,229 933.78,229 " fill="none" id="Player_obj-socket" style="stroke:#A80036;stroke-width:1.0;"/><!--MD5=[50756945442bccd18b1bb8c212a68a63]
link Player_obj to player_id--><path d="M838.12,252.09 C828.02,290.03 807.82,365.88 801.17,390.83 " fill="none" id="Player_obj-player_id" style="stroke:#A80036;stroke-width:1.0;"/><!--MD5=[dbc332656c7ff2ecb453fc4ddb7368d3]
link Player_obj to ready--><path d="M851.32,252.09 C863.89,290.03 889.03,365.88 897.29,390.83 " fill="none" id="Player_obj-ready" style="stroke:#A80036;stroke-width:1.0;"/><!--MD5=[edc695ca0314848b7901b2fdfdef62f3]
link board_id to Board_obj--><path d="M1240.28,229 C1251.96,229 1263.65,229 1275.33,229 " fill="none" id="board_id-Board_obj" style="stroke:#A80036;stroke-width:1.0;"/><!--MD5=[29d020ac6cffa1dcc70a4bf39386dfb3]
link Board_obj to grid--><path d="M1321.24,252.09 C1309,282.96 1286.81,338.94 1273.64,372.17 " fill="none" id="Board_obj-to-grid" style="stroke:#A80036;stroke-width:1.0;"/><polygon fill="#A80036" points="1271.76,376.9,1278.7982,370.0106,1273.6046,372.2527,1271.3625,367.0592,1271.76,376.9" style="stroke:#A80036;stroke-width:1.0;"/><!--MD5=[9053c792a3e0b6ba47907f62d56a8e53]
link Board_obj to Ship--><path d="M1384.82,251.66 C1425.74,269.04 1476.64,293.64 1489,313 C1491.4925,316.9063 1493.44,321.1275 1494.9379,325.5302 C1495.3124,326.6308 1495.6588,327.7429 1495.9786,328.8641 " fill="none" id="Board_obj-to-Ship" style="stroke:#A80036;stroke-width:1.0;"/><polygon fill="#A80036" points="1495.9786,328.8641,1497.3568,319.1122,1494.6073,324.0558,1489.6636,321.3063,1495.9786,328.8641" style="stroke:#A80036;stroke-width:1.0;"/><!--MD5=[4009ce17e650ad9ecb32cf08bb951155]
link Board_obj to size--><path d="M1384.53,229 C1396.34,229 1408.15,229 1419.97,229 " fill="none" id="Board_obj-size" style="stroke:#A80036;stroke-width:1.0;"/><!--MD5=[91ad8b5b160f3f33c7fcdb561d1ba3c2]
link grid to Square--><path d="M1246.84,423.04 C1229.21,445.2 1198.81,478.26 1164,494 C1146.91,501.72 1093.24,488.73 1080,502 C1078.3313,503.6713 1076.952,506.2333 1075.8164,509.4416 C1075.2485,511.0457 1074.7416,512.8115 1074.2898,514.7082 C1074.0639,515.6565 1073.8518,516.6376 1073.6527,517.6477 " fill="none" id="grid-to-Square" style="stroke:#A80036;stroke-width:1.0;"/><polygon fill="#A80036" points="1073.6527,517.6477,1079.3174,509.5909,1074.6195,512.742,1071.4684,508.0441,1073.6527,517.6477" style="stroke:#A80036;stroke-width:1.0;"/><text fill="#000000" font-family="sans-serif" font-size="13" lengthAdjust="spacing" textLength="32" x="1193" y="490.5684">has *</text><!--MD5=[621a07f4ea0d2f139a736bfbde33d3e9]
link Square_obj to square_state--><path d="M1277.74,589 C1289.38,589 1301.02,589 1312.66,589 " fill="none" id="Square_obj-square_state" style="stroke:#A80036;stroke-width:1.0;"/><!--MD5=[18d7b56a8b8c3401093e32dbb805bca2]
link col to Square_obj--><path d="M1125.25,589 C1136.97,589 1148.69,589 1160.41,589 " fill="none" id="col-Square_obj" style="stroke:#A80036;stroke-width:1.0;"/><!--MD5=[b218f27b5fdd05173d79569fa6543eda]
link Square_obj to row--><path d="M1213.48,612.26 C1205.99,642.43 1192.99,694.84 1188.01,714.88 " fill="none" id="Square_obj-row" style="stroke:#A80036;stroke-width:1.0;"/><!--MD5=[eae87773e786f9cab39d048912bbaf50]
link square_state to Square_State--><path d="M1321.44,598.32 C1320.14,617.46 1316.9,665.3 1314.84,695.85 " fill="none" id="square_state-to-Square_State" style="stroke:#A80036;stroke-width:1.0;"/><polygon fill="#A80036" points="1314.49,700.97,1319.098,692.2656,1314.833,695.9818,1311.1169,691.7168,1314.49,700.97" style="stroke:#A80036;stroke-width:1.0;"/><text fill="#000000" font-family="sans-serif" font-size="13" lengthAdjust="spacing" textLength="44" x="1319" y="661.5684">of type</text><!--MD5=[3542ad12bedd37b81b4949da636ff6bf]
link Square_State to empty--><path d="M1277.64,747.01 C1233.18,774.68 1159.58,820.48 1134.05,836.37 " fill="none" id="Square_State-empty" style="stroke:#A80036;stroke-width:1.0;"/><!--MD5=[571123e4b05020dca827bfa67bdbbec9]
link Square_State to filled--><path d="M1294.76,747.01 C1272.91,773.35 1237.44,816.14 1222.73,833.89 " fill="none" id="Square_State-filled" style="stroke:#A80036;stroke-width:1.0;"/><!--MD5=[8cdfa957cfe35fe1d01cea04c09a4745]
link Square_State to hit--><path d="M1311.5,747.01 C1309.69,773.35 1306.77,816.14 1305.55,833.89 " fill="none" id="Square_State-hit" style="stroke:#A80036;stroke-width:1.0;"/><!--MD5=[9b0584e7eb03a2f222d6484b4734a4c2]
link Square_State to miss--><path d="M1328.24,747.01 C1346.47,773.35 1376.1,816.14 1388.38,833.89 " fill="none" id="Square_State-miss" style="stroke:#A80036;stroke-width:1.0;"/><!--MD5=[43f97e8f0f9bdbcb893fd6de101dec07]
link Ship_obj to Square--><path d="M1647.85,423.24 C1638.8,438.8 1624.52,458.58 1606,469 C1539.03,506.68 1084.16,498.11 1080,502 C1078.275,503.6125 1076.8534,506.1303 1075.6868,509.3062 C1075.1034,510.8942 1074.5838,512.6467 1074.1218,514.5328 C1073.8908,515.4758 1073.6743,516.4523 1073.4714,517.4583 C1073.446,517.5841 1073.4208,517.7103 1073.3959,517.8369 " fill="none" id="Ship_obj-to-Square" style="stroke:#A80036;stroke-width:1.0;"/><polygon fill="#A80036" points="1073.3959,517.8369,1079.0592,509.7792,1074.3618,512.9311,1071.2099,508.2337,1073.3959,517.8369" style="stroke:#A80036;stroke-width:1.0;"/><text fill="#000000" font-family="sans-serif" font-size="13" lengthAdjust="spacing" textLength="32" x="1583" y="490.5684">has *</text><!--MD5=[b586958ff94ac609bdb4fcd0488bcb32]
link Ship_obj to Ship_Type--><path d="M1708.87,417.96 C1746.23,433.53 1794.87,460.55 1819,502 C1821.3313,506.005 1823.1566,510.3011 1824.5643,514.7591 C1824.7402,515.3163 1824.9097,515.8761 1825.0728,516.4381 C1825.1543,516.7192 1825.2343,517.0008 1825.3127,517.2829 C1825.3519,517.424 1825.3907,517.5652 1825.4291,517.7065 " fill="none" id="Ship_obj-to-Ship_Type" style="stroke:#A80036;stroke-width:1.0;"/><polygon fill="#A80036" points="1825.4291,517.7065,1826.9285,507.9724,1824.1176,512.8815,1819.2085,510.0707,1825.4291,517.7065" style="stroke:#A80036;stroke-width:1.0;"/><text fill="#000000" font-family="sans-serif" font-size="13" lengthAdjust="spacing" textLength="32" x="1814" y="490.5684">has *</text><!--MD5=[e12be08e17efd0762c7141f45b619061]
link Ship_obj to ship_state--><path d="M1659,423.19 C1659,462.35 1659,542.61 1659,574.5 " fill="none" id="Ship_obj-to-ship_state" style="stroke:#A80036;stroke-width:1.0;"/><polygon fill="#A80036" points="1659,579.87,1663,570.87,1659,574.87,1655,570.87,1659,579.87" style="stroke:#A80036;stroke-width:1.0;"/><text fill="#000000" font-family="sans-serif" font-size="13" lengthAdjust="spacing" textLength="32" x="1660" y="490.5684">has *</text><!--MD5=[fa9e3bbce9b2ea9551cdc132c2f53883]
link ship_state to Ship_State--><path d="M1659,598.32 C1659,617.46 1659,665.3 1659,695.85 " fill="none" id="ship_state-to-Ship_State" style="stroke:#A80036;stroke-width:1.0;"/><polygon fill="#A80036" points="1659,700.97,1663,691.97,1659,695.97,1655,691.97,1659,700.97" style="stroke:#A80036;stroke-width:1.0;"/><text fill="#000000" font-family="sans-serif" font-size="13" lengthAdjust="spacing" textLength="44" x="1660" y="661.5684">of type</text><!--MD5=[6f84d0e7260baf7119653cf11e7a5260]
link Ship_State to WHOLE--><path d="M1638.31,747.01 C1613.54,773.35 1573.31,816.14 1556.63,833.89 " fill="none" id="Ship_State-WHOLE" style="stroke:#A80036;stroke-width:1.0;"/><!--MD5=[c22f22c30516e771280a3d56306a81de]
link Ship_State to DAMAGED--><path d="M1659,747.01 C1659,773.35 1659,816.14 1659,833.89 " fill="none" id="Ship_State-DAMAGED" style="stroke:#A80036;stroke-width:1.0;"/><!--MD5=[ed24491683314c1976646611d35ddcfd]
link Ship_State to SUNK--><path d="M1678.75,747.01 C1702.39,773.35 1740.79,816.14 1756.72,833.89 " fill="none" id="Ship_State-SUNK" style="stroke:#A80036;stroke-width:1.0;"/><!--MD5=[a0cbb80c01026e34ba65950658303f93]
link Ship_Type_Obj to ship_descriptor--><path d="M2069.62,589 C2086.6,589 2103.58,589 2120.57,589 " fill="none" id="Ship_Type_Obj-ship_descriptor" style="stroke:#A80036;stroke-width:1.0;"/><!--MD5=[13291a85480bacd63efb3326c30c5d24]
link ship_name to Ship_Type_Obj--><path d="M1893.43,589 C1905.12,589 1916.8,589 1928.48,589 " fill="none" id="ship_name-Ship_Type_Obj" style="stroke:#A80036;stroke-width:1.0;"/><!--MD5=[ad89ce8dfdcf68b067e485b91249062b]
link Ship_Type_Obj to ship_size--><path d="M1996.99,612.26 C1994.27,642.43 1989.54,694.84 1987.73,714.88 " fill="none" id="Ship_Type_Obj-ship_size" style="stroke:#A80036;stroke-width:1.0;"/><!--MD5=[56a27bfb261c9a15a3269260d98bf8b7]
link ship_descriptor to Ship_Descriptor--><path d="M2130.31,598.32 C2131.03,617.46 2132.83,665.3 2133.98,695.85 " fill="none" id="ship_descriptor-to-Ship_Descriptor" style="stroke:#A80036;stroke-width:1.0;"/><polygon fill="#A80036" points="2134.17,700.97,2137.8322,691.8273,2133.9839,695.9735,2129.8378,692.1251,2134.17,700.97" style="stroke:#A80036;stroke-width:1.0;"/><text fill="#000000" font-family="sans-serif" font-size="13" lengthAdjust="spacing" textLength="44" x="2133" y="661.5684">of type</text><!--MD5=[c2624e74c1b0354be1cd3f5b0f0c2bd1]
link Ship_Descriptor to CARRIER--><path d="M2084.77,747.07 C2045,764.72 1988.16,790.34 1939,814 C1922.78,821.81 1904.16,831.43 1893.28,837.12 " fill="none" id="Ship_Descriptor-CARRIER" style="stroke:#A80036;stroke-width:1.0;"/><!--MD5=[55c36d5f639e6e0ac9d52c417f05f1de]
link Ship_Descriptor to BATTLESHIP--><path d="M2110.36,747.01 C2080.86,773.35 2032.95,816.14 2013.08,833.89 " fill="none" id="Ship_Descriptor-BATTLESHIP" style="stroke:#A80036;stroke-width:1.0;"/><!--MD5=[c3b5080e4260367b9f05faba2b2678e6]
link Ship_Descriptor to DESTROYER--><path d="M2135,747.01 C2135,773.35 2135,816.14 2135,833.89 " fill="none" id="Ship_Descriptor-DESTROYER" style="stroke:#A80036;stroke-width:1.0;"/><!--MD5=[2d1ea6e4ac565ad3f066b881d0f3f4fb]
link Ship_Descriptor to SUBMARINE--><path d="M2159.45,747.01 C2188.73,773.35 2236.27,816.14 2255.99,833.89 " fill="none" id="Ship_Descriptor-SUBMARINE" style="stroke:#A80036;stroke-width:1.0;"/><!--MD5=[5f8d891ee540fb9c78b4da5b649fc308]
link Ship_Descriptor to PathHoverColor--><path d="M2186.54,747.01 C2253.82,775.74 2366.88,824.01 2399.77,838.06 " fill="none" id="Ship_Descriptor-PathHoverColor" style="stroke:#A80036;stroke-width:1.0;"/><!--MD5=[4a2ccde0400da7ab5ee5451765a9e5fe]
@startuml Class_Diagram_Detail
package "Game Class Diagram (Detail)" {
        [Game_obj] -left- game_id
        [Game_obj] -right- turn
        [Game_obj] -down-> game_state : has 1
        [Game_obj] -down-> [Rules] : has 1
        [Game_obj] -down-> [Board] : has >= 2
        [Game_obj] -down-> [Player] : has >= 2

        game_state - -> [Game_State] : of type

        [Game_State] -down- IDLE
        [Game_State] -down- STARTED
        [Game_State] -down- OVER

        node "Rules" {
            [Rules_obj] -right- rules_type
            [Rules_obj] -left- ships
            [Rules_obj] -down- boardSize

            rules_type -> [Rules_Type] : of type

            [Rules_Type] -down- CLASSIC
            [Rules_Type] -down- BASIC
        }

        node "Player" {
            [Player_obj] -left- name
            [Player_obj] -right- socket
            [Player_obj] -down- player_id
            [Player_obj] -down- ready
        }

        node "Board" {
            [Board_obj] -left- board_id
            [Board_obj] -down-> [grid]
            [Board_obj] -down-> [Ship]
            [Board_obj] -right- size
            [grid] - -> [Square] : has *

            node "Square" {
                [Square_obj] -right- square_state
                [Square_obj] -left- col
                [Square_obj] -down- row

                square_state - -> [Square_State] : of type

                [Square_State] -down- empty
                [Square_State] -down- filled
                [Square_State] -down- hit
                [Square_State] -down- miss
            }

            node "Ship" {
                [Ship_obj] - -> Square : has *
                [Ship_obj] - -> [Ship_Type] : has *
                [Ship_obj] - -> ship_state : has *

                ship_state - -> [Ship_State] : of type

                [Ship_State] -down- WHOLE
                [Ship_State] -down- DAMAGED
                [Ship_State] -down- SUNK

                node "Ship_Type" {
                    [Ship_Type_Obj] -right- ship_descriptor
                    [Ship_Type_Obj] -left- ship_name
                    [Ship_Type_Obj] -down- ship_size
                    
                    ship_descriptor - -> [Ship_Descriptor] : of type

                    [Ship_Descriptor] -down- CARRIER
                    [Ship_Descriptor] -down- BATTLESHIP
                    [Ship_Descriptor] -down- DESTROYER
                    [Ship_Descriptor] -down- SUBMARINE
                    [Ship_Descriptor] -down- PathHoverColor
                }
            }
        }

}
@enduml

PlantUML version 1.2021.7(Sun May 23 08:40:07 EDT 2021)
(GPL source distribution)
Java Runtime: OpenJDK Runtime Environment
JVM: OpenJDK 64-Bit Server VM
Default Encoding: UTF-8
Language: en
Country: US
--></g></svg>