<?xml version="1.0" encoding="UTF-8" standalone="no"?><svg xmlns="http://www.w3.org/2000/svg" xmlns:xlink="http://www.w3.org/1999/xlink" contentScriptType="application/ecmascript" contentStyleType="text/css" height="845px" preserveAspectRatio="none" style="width:1230px;height:845px;background:#FFFFFF;" version="1.1" viewBox="0 0 1230 845" width="1230px" zoomAndPan="magnify"><defs><filter height="300%" id="fy8uo68rzhlkm" width="300%" x="-1" y="-1"><feGaussianBlur result="blurOut" stdDeviation="2.0"/><feColorMatrix in="blurOut" result="blurOut2" type="matrix" values="0 0 0 0 0 0 0 0 0 0 0 0 0 0 0 0 0 0 .4 0"/><feOffset dx="4.0" dy="4.0" in="blurOut2" result="blurOut3"/><feBlend in="SourceGraphic" in2="blurOut3" mode="normal"/></filter></defs><g><!--MD5=[979da56a7f83e2393dc758167ae295d0]
cluster Server--><polygon fill="#FFFFFF" filter="url(#fy8uo68rzhlkm)" points="16,6,66,6,73,28.4883,452,28.4883,452,487,16,487,16,6" style="stroke:#000000;stroke-width:1.5;"/><line style="stroke:#000000;stroke-width:1.5;" x1="16" x2="73" y1="28.4883" y2="28.4883"/><text fill="#000000" font-family="sans-serif" font-size="14" font-weight="bold" lengthAdjust="spacing" textLength="44" x="20" y="21.5352">Server</text><!--MD5=[5b1e7b39696a35f594ab732c2736efa5]
cluster Server_Manager--><polygon fill="#FFFFFF" filter="url(#fy8uo68rzhlkm)" points="40,59,50,49,428,49,428,453,418,463,40,463,40,59" style="stroke:#000000;stroke-width:1.5;"/><line style="stroke:#000000;stroke-width:1.5;" x1="418" x2="428" y1="59" y2="49"/><line style="stroke:#000000;stroke-width:1.5;" x1="40" x2="418" y1="59" y2="59"/><line style="stroke:#000000;stroke-width:1.5;" x1="418" x2="418" y1="59" y2="463"/><text fill="#000000" font-family="sans-serif" font-size="14" font-weight="bold" lengthAdjust="spacing" textLength="112" x="174" y="75.5352">Server_Manager</text><!--MD5=[0015d8ae58034cea76d2de859884e0b5]
cluster Lobby--><polygon fill="#FFFFFF" filter="url(#fy8uo68rzhlkm)" points="147,323,157,313,334,313,334,421,324,431,147,431,147,323" style="stroke:#000000;stroke-width:1.5;"/><line style="stroke:#000000;stroke-width:1.5;" x1="324" x2="334" y1="323" y2="313"/><line style="stroke:#000000;stroke-width:1.5;" x1="147" x2="324" y1="323" y2="323"/><line style="stroke:#000000;stroke-width:1.5;" x1="324" x2="324" y1="323" y2="431"/><text fill="#000000" font-family="sans-serif" font-size="14" font-weight="bold" lengthAdjust="spacing" textLength="43" x="215" y="339.5352">Lobby</text><!--MD5=[75db12bf3994149902b960656d5959b9]
cluster MCU--><polygon fill="#FFFFFF" filter="url(#fy8uo68rzhlkm)" points="476,326,515,326,522,348.4883,1213,348.4883,1213,838,476,838,476,326" style="stroke:#000000;stroke-width:1.5;"/><line style="stroke:#000000;stroke-width:1.5;" x1="476" x2="522" y1="348.4883" y2="348.4883"/><text fill="#000000" font-family="sans-serif" font-size="14" font-weight="bold" lengthAdjust="spacing" textLength="33" x="480" y="341.5352">MCU</text><!--MD5=[d593face40a440c7ffd31230b15dcb40]
entity Server_Manager_Obj--><rect fill="#FEFECE" filter="url(#fy8uo68rzhlkm)" height="46.4883" style="stroke:#A80036;stroke-width:1.5;" width="181" x="64.5" y="89"/><rect fill="#FEFECE" height="10" style="stroke:#A80036;stroke-width:1.5;" width="15" x="225.5" y="94"/><rect fill="#FEFECE" height="2" style="stroke:#A80036;stroke-width:1.5;" width="4" x="223.5" y="96"/><rect fill="#FEFECE" height="2" style="stroke:#A80036;stroke-width:1.5;" width="4" x="223.5" y="100"/><text fill="#000000" font-family="sans-serif" font-size="14" lengthAdjust="spacing" textLength="141" x="79.5" y="122.5352">Server_Manager_Obj</text><!--MD5=[6210d540656442020b0f619155fb903e]
entity HTTP Server--><rect fill="#FEFECE" filter="url(#fy8uo68rzhlkm)" height="46.4883" style="stroke:#A80036;stroke-width:1.5;" width="123" x="93.5" y="196"/><rect fill="#FEFECE" height="10" style="stroke:#A80036;stroke-width:1.5;" width="15" x="196.5" y="201"/><rect fill="#FEFECE" height="2" style="stroke:#A80036;stroke-width:1.5;" width="4" x="194.5" y="203"/><rect fill="#FEFECE" height="2" style="stroke:#A80036;stroke-width:1.5;" width="4" x="194.5" y="207"/><text fill="#000000" font-family="sans-serif" font-size="14" lengthAdjust="spacing" textLength="83" x="108.5" y="229.5352">HTTP Server</text><!--MD5=[1cfca54f5056653ffc487d632251c5d4]
entity Websocket Server--><rect fill="#FEFECE" filter="url(#fy8uo68rzhlkm)" height="46.4883" style="stroke:#A80036;stroke-width:1.5;" width="160" x="252" y="196"/><rect fill="#FEFECE" height="10" style="stroke:#A80036;stroke-width:1.5;" width="15" x="392" y="201"/><rect fill="#FEFECE" height="2" style="stroke:#A80036;stroke-width:1.5;" width="4" x="390" y="203"/><rect fill="#FEFECE" height="2" style="stroke:#A80036;stroke-width:1.5;" width="4" x="390" y="207"/><text fill="#000000" font-family="sans-serif" font-size="14" lengthAdjust="spacing" textLength="120" x="267" y="229.5352">Websocket Server</text><!--MD5=[bc16f03f05191a35c3c9cf085d751a7e]
entity Game Logic--><polygon fill="#FFFFFF" filter="url(#fy8uo68rzhlkm)" points="190.5,371,200.5,361,309.5,361,309.5,397.4883,299.5,407.4883,190.5,407.4883,190.5,371" style="stroke:#000000;stroke-width:1.5;"/><line style="stroke:#000000;stroke-width:1.5;" x1="299.5" x2="309.5" y1="371" y2="361"/><line style="stroke:#000000;stroke-width:1.5;" x1="190.5" x2="299.5" y1="371" y2="371"/><line style="stroke:#000000;stroke-width:1.5;" x1="299.5" x2="299.5" y1="371" y2="407.4883"/><text fill="#000000" font-family="sans-serif" font-size="14" lengthAdjust="spacing" textLength="79" x="205.5" y="394.5352">Game Logic</text><!--MD5=[d8f7f003928bb621d39f0d025ec80a2a]
entity WiFi--><rect fill="#FEFECE" filter="url(#fy8uo68rzhlkm)" height="46.4883" style="stroke:#A80036;stroke-width:1.5;" width="68" x="492" y="361"/><rect fill="#FEFECE" height="10" style="stroke:#A80036;stroke-width:1.5;" width="15" x="540" y="366"/><rect fill="#FEFECE" height="2" style="stroke:#A80036;stroke-width:1.5;" width="4" x="538" y="368"/><rect fill="#FEFECE" height="2" style="stroke:#A80036;stroke-width:1.5;" width="4" x="538" y="372"/><text fill="#000000" font-family="sans-serif" font-size="14" lengthAdjust="spacing" textLength="28" x="507" y="394.5352">WiFi</text><!--MD5=[f855680bc6c989572ebb25245d27968d]
entity Controller--><rect fill="#FEFECE" filter="url(#fy8uo68rzhlkm)" height="46.4883" style="stroke:#A80036;stroke-width:1.5;" width="110" x="595" y="361"/><rect fill="#FEFECE" height="10" style="stroke:#A80036;stroke-width:1.5;" width="15" x="685" y="366"/><rect fill="#FEFECE" height="2" style="stroke:#A80036;stroke-width:1.5;" width="4" x="683" y="368"/><rect fill="#FEFECE" height="2" style="stroke:#A80036;stroke-width:1.5;" width="4" x="683" y="372"/><text fill="#000000" font-family="sans-serif" font-size="14" lengthAdjust="spacing" textLength="70" x="610" y="394.5352">Controller</text><!--MD5=[42811681d3549880614161e8bda90a35]
entity ADC--><rect fill="#FEFECE" filter="url(#fy8uo68rzhlkm)" height="46.4883" style="stroke:#A80036;stroke-width:1.5;" width="70" x="612" y="641"/><rect fill="#FEFECE" height="10" style="stroke:#A80036;stroke-width:1.5;" width="15" x="662" y="646"/><rect fill="#FEFECE" height="2" style="stroke:#A80036;stroke-width:1.5;" width="4" x="660" y="648"/><rect fill="#FEFECE" height="2" style="stroke:#A80036;stroke-width:1.5;" width="4" x="660" y="652"/><text fill="#000000" font-family="sans-serif" font-size="14" lengthAdjust="spacing" textLength="30" x="627" y="674.5352">ADC</text><!--MD5=[1a2b7ca0cf73aca5a2dcecbd567e0db3]
entity Battery--><ellipse cx="523" cy="793" fill="#FEFECE" filter="url(#fy8uo68rzhlkm)" rx="8" ry="8" style="stroke:#A80036;stroke-width:1.5;"/><text fill="#000000" font-family="sans-serif" font-size="14" lengthAdjust="spacing" textLength="47" x="499.5" y="823.5352">Battery</text><!--MD5=[a003ed2d14cbb5494e5a01c0ccae9ee8]
entity Ship_Positions--><ellipse cx="646" cy="793" fill="#FEFECE" filter="url(#fy8uo68rzhlkm)" rx="8" ry="8" style="stroke:#A80036;stroke-width:1.5;"/><text fill="#000000" font-family="sans-serif" font-size="14" lengthAdjust="spacing" textLength="99" x="596.5" y="823.5352">Ship_Positions</text><!--MD5=[a9418e92fba3d6054720ec8c5ca78b0a]
entity Player_Moves--><ellipse cx="791" cy="793" fill="#FEFECE" filter="url(#fy8uo68rzhlkm)" rx="8" ry="8" style="stroke:#A80036;stroke-width:1.5;"/><text fill="#000000" font-family="sans-serif" font-size="14" lengthAdjust="spacing" textLength="91" x="745.5" y="823.5352">Player_Moves</text><!--MD5=[99166ef7b986dc620a0eb0b7893f0066]
entity GPIO--><rect fill="#FEFECE" filter="url(#fy8uo68rzhlkm)" height="46.4883" style="stroke:#A80036;stroke-width:1.5;" width="73" x="859.5" y="641"/><rect fill="#FEFECE" height="10" style="stroke:#A80036;stroke-width:1.5;" width="15" x="912.5" y="646"/><rect fill="#FEFECE" height="2" style="stroke:#A80036;stroke-width:1.5;" width="4" x="910.5" y="648"/><rect fill="#FEFECE" height="2" style="stroke:#A80036;stroke-width:1.5;" width="4" x="910.5" y="652"/><text fill="#000000" font-family="sans-serif" font-size="14" lengthAdjust="spacing" textLength="33" x="874.5" y="674.5352">GPIO</text><!--MD5=[1240995e1a5c7946ae238581d45e25f6]
entity DAC--><rect fill="#FEFECE" filter="url(#fy8uo68rzhlkm)" height="46.4883" style="stroke:#A80036;stroke-width:1.5;" width="70" x="980" y="641"/><rect fill="#FEFECE" height="10" style="stroke:#A80036;stroke-width:1.5;" width="15" x="1030" y="646"/><rect fill="#FEFECE" height="2" style="stroke:#A80036;stroke-width:1.5;" width="4" x="1028" y="648"/><rect fill="#FEFECE" height="2" style="stroke:#A80036;stroke-width:1.5;" width="4" x="1028" y="652"/><text fill="#000000" font-family="sans-serif" font-size="14" lengthAdjust="spacing" textLength="30" x="995" y="674.5352">DAC</text><!--MD5=[9b92dd3706ff9836cd497e0705c6a203]
entity SPI--><rect fill="#FEFECE" filter="url(#fy8uo68rzhlkm)" height="46.4883" style="stroke:#A80036;stroke-width:1.5;" width="60" x="1091" y="641"/><rect fill="#FEFECE" height="10" style="stroke:#A80036;stroke-width:1.5;" width="15" x="1131" y="646"/><rect fill="#FEFECE" height="2" style="stroke:#A80036;stroke-width:1.5;" width="4" x="1129" y="648"/><rect fill="#FEFECE" height="2" style="stroke:#A80036;stroke-width:1.5;" width="4" x="1129" y="652"/><text fill="#000000" font-family="sans-serif" font-size="14" lengthAdjust="spacing" textLength="20" x="1106" y="674.5352">SPI</text><!--MD5=[bab580992f41bab26db402506745a8f0]
entity LED_GRID--><ellipse cx="919" cy="793" fill="#FEFECE" filter="url(#fy8uo68rzhlkm)" rx="8" ry="8" style="stroke:#A80036;stroke-width:1.5;"/><text fill="#000000" font-family="sans-serif" font-size="14" lengthAdjust="spacing" textLength="65" x="886.5" y="823.5352">LED_GRID</text><!--MD5=[d547d15fb96b3e4456d04d63ff379a3f]
entity Speaker--><ellipse cx="1029" cy="793" fill="#FEFECE" filter="url(#fy8uo68rzhlkm)" rx="8" ry="8" style="stroke:#A80036;stroke-width:1.5;"/><text fill="#000000" font-family="sans-serif" font-size="14" lengthAdjust="spacing" textLength="55" x="1001.5" y="823.5352">Speaker</text><!--MD5=[f20619631b96249722c9010113f58d1c]
entity LCD_Display--><ellipse cx="1148" cy="793" fill="#FEFECE" filter="url(#fy8uo68rzhlkm)" rx="8" ry="8" style="stroke:#A80036;stroke-width:1.5;"/><text fill="#000000" font-family="sans-serif" font-size="14" lengthAdjust="spacing" textLength="83" x="1106.5" y="823.5352">LCD_Display</text><!--MD5=[06897cee63e837a223c4d3401301b6cb]
entity Inputs--><polygon fill="#FFFFFF" filter="url(#fy8uo68rzhlkm)" points="607.5,544,617.5,534,690.5,534,690.5,570.4883,680.5,580.4883,607.5,580.4883,607.5,544" style="stroke:#000000;stroke-width:1.5;"/><line style="stroke:#000000;stroke-width:1.5;" x1="680.5" x2="690.5" y1="544" y2="534"/><line style="stroke:#000000;stroke-width:1.5;" x1="607.5" x2="680.5" y1="544" y2="544"/><line style="stroke:#000000;stroke-width:1.5;" x1="680.5" x2="680.5" y1="544" y2="580.4883"/><text fill="#000000" font-family="sans-serif" font-size="14" lengthAdjust="spacing" textLength="43" x="622.5" y="567.5352">Inputs</text><!--MD5=[1d274fcf781766d1e3a886cdbf031160]
entity Outputs--><polygon fill="#FFFFFF" filter="url(#fy8uo68rzhlkm)" points="908.5,544,918.5,534,1003.5,534,1003.5,570.4883,993.5,580.4883,908.5,580.4883,908.5,544" style="stroke:#000000;stroke-width:1.5;"/><line style="stroke:#000000;stroke-width:1.5;" x1="993.5" x2="1003.5" y1="544" y2="534"/><line style="stroke:#000000;stroke-width:1.5;" x1="908.5" x2="993.5" y1="544" y2="544"/><line style="stroke:#000000;stroke-width:1.5;" x1="993.5" x2="993.5" y1="544" y2="580.4883"/><text fill="#000000" font-family="sans-serif" font-size="14" lengthAdjust="spacing" textLength="55" x="923.5" y="567.5352">Outputs</text><!--MD5=[dde2cf7a5c03bbce8bc6375ccbab540c]
link Server_Manager_Obj to HTTP Server--><path d="M155,135.01 C155,151.14 155,173.15 155,190.45 " fill="none" id="Server_Manager_Obj-to-HTTP Server" style="stroke:#A80036;stroke-width:1.0;"/><polygon fill="#A80036" points="155,195.66,159,186.66,155,190.66,151,186.66,155,195.66" style="stroke:#A80036;stroke-width:1.0;"/><!--MD5=[777e5428be3295c0db384d4f73844876]
link Server_Manager_Obj to Websocket Server--><path d="M192.11,135.01 C220.8,152.03 260.53,175.6 290.32,193.27 " fill="none" id="Server_Manager_Obj-to-Websocket Server" style="stroke:#A80036;stroke-width:1.0;"/><polygon fill="#A80036" points="294.64,195.84,288.9293,187.8158,290.3362,193.2949,284.8571,194.7019,294.64,195.84" style="stroke:#A80036;stroke-width:1.0;"/><!--MD5=[728bd4ac41f64591ba5d4ddfc458d34c]
link Server_Manager_Obj to Lobby--><path d="M124.62,135.06 C106.76,149.99 85.82,171.43 76,196 C68.41,214.98 70.84,222.22 76,242 C84.93,276.21 104.2075,310.9025 121.4838,337.315 C130.1219,350.5212 138.2597,361.6575 144.3536,369.6284 C145.1153,370.6248 145.8451,371.5717 146.54,372.467 C146.6268,372.5789 146.7132,372.69 146.7989,372.8003 " fill="none" id="Server_Manager_Obj-to-Lobby" style="stroke:#A80036;stroke-width:1.0;"/><polygon fill="#A80036" points="146.7989,372.8003,144.4324,363.24,143.7298,368.8531,138.1168,368.1505,146.7989,372.8003" style="stroke:#A80036;stroke-width:1.0;"/><!--MD5=[3a86fcd06f5e46b34ba366c5b12a9e25]
link Websocket Server to Lobby--><path d="M297.92,242.07 C273.45,257.1 239.23,276.46 207,289 C192.94,294.47 184.56,286.22 174,297 C170.6825,300.3863 167.8898,304.2134 165.5436,308.3251 C164.957,309.353 164.3983,310.3987 163.8663,311.4598 C163.7333,311.725 163.602,311.9913 163.4723,312.2584 C163.4075,312.392 163.3431,312.5258 163.279,312.6598 " fill="none" id="Websocket Server-to-Lobby" style="stroke:#A80036;stroke-width:1.0;"/><polygon fill="#A80036" points="163.279,312.6598,170.7676,306.2628,165.4342,308.1481,163.5489,302.8146,163.279,312.6598" style="stroke:#A80036;stroke-width:1.0;"/><text fill="#000000" font-family="sans-serif" font-size="13" lengthAdjust="spacing" textLength="42" x="244" y="285.5684">handle</text><!--MD5=[4e35129da1a0a7f86c889a9b511d0a21]
link HTTP Server to Lobby--><path d="M155,242.32 C155,253.3075 155,267.4069 155,282.4211 C155,289.9282 155,297.664 155,305.3539 C155,307.2764 155,309.196 155,311.1085 C155,311.5866 155,312.0642 155,312.5414 " fill="none" id="HTTP Server-to-Lobby" style="stroke:#A80036;stroke-width:1.0;"/><polygon fill="#A80036" points="155,312.5414,159,303.5414,155,307.5414,151,303.5414,155,312.5414" style="stroke:#A80036;stroke-width:1.0;"/><text fill="#000000" font-family="sans-serif" font-size="13" lengthAdjust="spacing" textLength="42" x="156" y="285.5684">handle</text><!--MD5=[78c914b48ffa86788ba4c2a38630e50d]
link WiFi to Controller--><path d="M560.39,384 C570.13,384 579.87,384 589.6,384 " fill="none" id="WiFi-to-Controller" style="stroke:#A80036;stroke-width:1.0;"/><polygon fill="#A80036" points="594.69,384,585.69,380,589.69,384,585.69,388,594.69,384" style="stroke:#A80036;stroke-width:1.0;"/><!--MD5=[a173d28e80287116c0a1655f116800d8]
reverse link Controller to Inputs--><path d="M649.84,412.21 C649.64,445.89 649.31,502.63 649.13,533.81 " fill="none" id="Controller-backto-Inputs" style="stroke:#A80036;stroke-width:1.0;"/><polygon fill="#A80036" points="649.87,407.01,645.793,415.9754,649.8271,412.0098,653.7927,416.044,649.87,407.01" style="stroke:#A80036;stroke-width:1.0;"/><!--MD5=[79ea545ac41de768699357b688d3c529]
link Controller to Outputs--><path d="M689.38,407.01 C746.48,438.92 851.97,497.87 911.71,531.25 " fill="none" id="Controller-to-Outputs" style="stroke:#A80036;stroke-width:1.0;"/><polygon fill="#A80036" points="916.29,533.81,910.3848,525.9278,911.9253,531.3709,906.4822,532.9114,916.29,533.81" style="stroke:#A80036;stroke-width:1.0;"/><!--MD5=[3f59a00b3cff5878a1b1e30ae344e55e]
reverse link Inputs to ADC--><path d="M648.48,585.19 C648.15,602.43 647.73,624.44 647.43,640.66 " fill="none" id="Inputs-backto-ADC" style="stroke:#A80036;stroke-width:1.0;"/><polygon fill="#A80036" points="648.58,580.01,644.4263,588.9401,648.4943,585.0093,652.4251,589.0772,648.58,580.01" style="stroke:#A80036;stroke-width:1.0;"/><!--MD5=[411053a999ecde3424ad9c4c52e4c1bf]
reverse link ADC to Battery--><path d="M607.62,687.6 C595.08,695.89 581.7,705.97 571,717 C550.55,738.09 534.02,769.19 526.85,783.82 " fill="none" id="ADC-backto-Battery" style="stroke:#A80036;stroke-width:1.0;"/><polygon fill="#A80036" points="611.83,684.86,602.1061,686.4239,607.6414,687.5905,606.4749,693.1257,611.83,684.86" style="stroke:#A80036;stroke-width:1.0;"/><text fill="#000000" font-family="sans-serif" font-size="13" lengthAdjust="spacing" textLength="65" x="572" y="730.5684">monitored</text><!--MD5=[091b82db0d192953deebff73cbadd4cf]
reverse link ADC to Ship_Positions--><path d="M646.78,692.36 C646.56,721.44 646.21,765.66 646.06,783.8 " fill="none" id="ADC-backto-Ship_Positions" style="stroke:#A80036;stroke-width:1.0;"/><polygon fill="#A80036" points="646.83,687.12,642.753,696.0854,646.7871,692.1198,650.7527,696.154,646.83,687.12" style="stroke:#A80036;stroke-width:1.0;"/><text fill="#000000" font-family="sans-serif" font-size="13" lengthAdjust="spacing" textLength="75" x="647" y="730.5684">multiplexed</text><!--MD5=[816eabd742002a25100ea571bf440027]
reverse link ADC to Player_Moves--><path d="M686.85,685.89 C701.5,694.51 717.74,705.25 731,717 C754.71,738.01 776.28,769.15 785.82,783.81 " fill="none" id="ADC-backto-Player_Moves" style="stroke:#A80036;stroke-width:1.0;"/><polygon fill="#A80036" points="682.36,683.28,688.1218,691.2676,686.6799,685.7976,692.1499,684.3557,682.36,683.28" style="stroke:#A80036;stroke-width:1.0;"/><text fill="#000000" font-family="sans-serif" font-size="13" lengthAdjust="spacing" textLength="75" x="748" y="730.5684">multiplexed</text><!--MD5=[0fc73ddcfe3e2f99e644450acc33bdfa]
link Outputs to GPIO--><path d="M943.42,580.01 C934.12,596.28 921.41,618.53 911.49,635.9 " fill="none" id="Outputs-to-GPIO" style="stroke:#A80036;stroke-width:1.0;"/><polygon fill="#A80036" points="908.77,640.66,916.6979,634.8163,911.243,636.3144,909.7449,630.8595,908.77,640.66" style="stroke:#A80036;stroke-width:1.0;"/><!--MD5=[76620b8d31700bca44c4d8b3d247d9f4]
link Outputs to DAC--><path d="M968.37,580.01 C977.51,596.28 990.01,618.53 999.77,635.9 " fill="none" id="Outputs-to-DAC" style="stroke:#A80036;stroke-width:1.0;"/><polygon fill="#A80036" points="1002.44,640.66,1001.5277,630.8535,999.9948,636.2987,994.5496,634.7658,1002.44,640.66" style="stroke:#A80036;stroke-width:1.0;"/><!--MD5=[dcd23c59ff8ad903e8090f11e9850fb5]
link Outputs to SPI--><path d="M990.59,580.01 C1018.76,597.94 1058.32,623.11 1086.47,641.03 " fill="none" id="Outputs-to-SPI" style="stroke:#A80036;stroke-width:1.0;"/><polygon fill="#A80036" points="1090.89,643.84,1085.4499,635.6299,1086.6735,641.1528,1081.1505,642.3764,1090.89,643.84" style="stroke:#A80036;stroke-width:1.0;"/><!--MD5=[97f03d8aa1f5f0ab9185f2e21716856d]
link GPIO to LED_GRID--><path d="M900.01,687.12 C904.8,713.59 912.67,757.05 916.6,778.77 " fill="none" id="GPIO-to-LED_GRID" style="stroke:#A80036;stroke-width:1.0;"/><polygon fill="#A80036" points="917.52,783.8,919.865,774.2344,916.6356,778.8788,911.9912,775.6494,917.52,783.8" style="stroke:#A80036;stroke-width:1.0;"/><text fill="#000000" font-family="sans-serif" font-size="13" lengthAdjust="spacing" textLength="96" x="909" y="730.5684">shift registered</text><!--MD5=[64198675b55b4f08379d9249c47b68c6]
link DAC to Speaker--><path d="M1017.44,687.12 C1020.36,713.59 1025.15,757.05 1027.54,778.77 " fill="none" id="DAC-to-Speaker" style="stroke:#A80036;stroke-width:1.0;"/><polygon fill="#A80036" points="1028.1,783.8,1031.0994,774.419,1027.5572,778.8295,1023.1467,775.2874,1028.1,783.8" style="stroke:#A80036;stroke-width:1.0;"/><text fill="#000000" font-family="sans-serif" font-size="13" lengthAdjust="spacing" textLength="59" x="1023" y="730.5684">amplified</text><!--MD5=[20957f7eda0050b30df3a35451303d27]
link SPI to LCD_Display--><path d="M1125.7,687.12 C1131.33,713.59 1140.57,757.05 1145.19,778.77 " fill="none" id="SPI-to-LCD_Display" style="stroke:#A80036;stroke-width:1.0;"/><polygon fill="#A80036" points="1146.26,783.8,1148.3201,774.169,1145.2299,778.9073,1140.4917,775.8171,1146.26,783.8" style="stroke:#A80036;stroke-width:1.0;"/><!--MD5=[56a392c16789bf45411dcc1b7bfbbb2e]
link Websocket Server to WiFi--><path d="M362.59,245.71 C399.07,276.35 459.63,327.24 495.89,357.7 " fill="none" id="Websocket Server-WiFi" style="stroke:#A80036;stroke-width:1.0;"/><polygon fill="#A80036" points="499.75,360.95,495.4291,352.0996,495.9206,357.735,490.2852,358.2266,499.75,360.95" style="stroke:#A80036;stroke-width:1.0;"/><polygon fill="#A80036" points="358.57,242.32,362.8909,251.1704,362.3994,245.535,368.0348,245.0434,358.57,242.32" style="stroke:#A80036;stroke-width:1.0;"/><!--MD5=[a7e72827403a11b4d6cc7bcf45ed39c9]
@startuml System_Class_Diagram
package "Server" {
    node "Server_Manager" {
        node "Lobby" {
            node "Game Logic" {
            }
        }
        [Server_Manager_Obj] -down-> [HTTP Server]
        [Server_Manager_Obj] -down-> [Websocket Server]
        [Server_Manager_Obj] -right-> Lobby

    }
    
    [Websocket Server] - -> Lobby : handle
    [HTTP Server] - -> Lobby : handle
}

package "MCU" {
    [WiFi] -> [Controller]
    [Controller] <-down- Inputs
    [Controller] -down-> Outputs

    node "Inputs" {
    }
    Inputs <-down- [ADC]

    [ADC] <-down- Battery : monitored
    [ADC] <-down- Ship_Positions : multiplexed
    [ADC] <-down- Player_Moves : multiplexed

    node "Outputs" {
    }
    Outputs -down-> [GPIO]
    Outputs -down-> [DAC]
    Outputs -down-> [SPI]

    [GPIO] -down-> LED_GRID : shift registered
    [DAC] -down-> Speaker : amplified
    [SPI] -down-> LCD_Display
}

[Websocket Server] <- -> [WiFi]
@enduml

PlantUML version 1.2021.7(Sun May 23 08:40:07 EDT 2021)
(GPL source distribution)
Java Runtime: OpenJDK Runtime Environment
JVM: OpenJDK 64-Bit Server VM
Default Encoding: UTF-8
Language: en
Country: US
--></g></svg>