<?xml version="1.0" encoding="UTF-8" standalone="no"?><svg xmlns="http://www.w3.org/2000/svg" xmlns:xlink="http://www.w3.org/1999/xlink" contentScriptType="application/ecmascript" contentStyleType="text/css" height="973px" preserveAspectRatio="none" style="width:1042px;height:973px;background:#FFFFFF;" version="1.1" viewBox="0 0 1042 973" width="1042px" zoomAndPan="magnify"><defs><filter height="300%" id="fejv9g536fq6k" width="300%" x="-1" y="-1"><feGaussianBlur result="blurOut" stdDeviation="2.0"/><feColorMatrix in="blurOut" result="blurOut2" type="matrix" values="0 0 0 0 0 0 0 0 0 0 0 0 0 0 0 0 0 0 .4 0"/><feOffset dx="4.0" dy="4.0" in="blurOut2" result="blurOut3"/><feBlend in="SourceGraphic" in2="blurOut3" mode="normal"/></filter></defs><g><!--MD5=[979da56a7f83e2393dc758167ae295d0]
cluster Server--><polygon fill="#FFFFFF" filter="url(#fejv9g536fq6k)" points="16,6,66,6,73,28.4883,452,28.4883,452,487,16,487,16,6" style="stroke:#000000;stroke-width:1.5;"/><line style="stroke:#000000;stroke-width:1.5;" x1="16" x2="73" y1="28.4883" y2="28.4883"/><text fill="#000000" font-family="sans-serif" font-size="14" font-weight="bold" lengthAdjust="spacing" textLength="44" x="20" y="21.5352">Server</text><!--MD5=[5b1e7b39696a35f594ab732c2736efa5]
cluster Server_Manager--><polygon fill="#FFFFFF" filter="url(#fejv9g536fq6k)" points="40,59,50,49,428,49,428,453,418,463,40,463,40,59" style="stroke:#000000;stroke-width:1.5;"/><line style="stroke:#000000;stroke-width:1.5;" x1="418" x2="428" y1="59" y2="49"/><line style="stroke:#000000;stroke-width:1.5;" x1="40" x2="418" y1="59" y2="59"/><line style="stroke:#000000;stroke-width:1.5;" x1="418" x2="418" y1="59" y2="463"/><text fill="#000000" font-family="sans-serif" font-size="14" font-weight="bold" lengthAdjust="spacing" textLength="112" x="174" y="75.5352">Server_Manager</text><!--MD5=[0015d8ae58034cea76d2de859884e0b5]
cluster Lobby--><polygon fill="#FFFFFF" filter="url(#fejv9g536fq6k)" points="147,323,157,313,334,313,334,421,324,431,147,431,147,323" style="stroke:#000000;stroke-width:1.5;"/><line style="stroke:#000000;stroke-width:1.5;" x1="324" x2="334" y1="323" y2="313"/><line style="stroke:#000000;stroke-width:1.5;" x1="147" x2="324" y1="323" y2="323"/><line style="stroke:#000000;stroke-width:1.5;" x1="324" x2="324" y1="323" y2="431"/><text fill="#000000" font-family="sans-serif" font-size="14" font-weight="bold" lengthAdjust="spacing" textLength="43" x="215" y="339.5352">Lobby</text><!--MD5=[406b65fecc21e832f7a9b6ebadc6dce1]
cluster Client--><polygon fill="#FFFFFF" filter="url(#fejv9g536fq6k)" points="476,326,525,326,532,348.4883,715,348.4883,715,423,476,423,476,326" style="stroke:#000000;stroke-width:1.5;"/><line style="stroke:#000000;stroke-width:1.5;" x1="476" x2="532" y1="348.4883" y2="348.4883"/><text fill="#000000" font-family="sans-serif" font-size="14" font-weight="bold" lengthAdjust="spacing" textLength="43" x="480" y="341.5352">Client</text><!--MD5=[75db12bf3994149902b960656d5959b9]
cluster MCU--><polygon fill="#FFFFFF" filter="url(#fejv9g536fq6k)" points="282,520,321,520,328,542.4883,1019,542.4883,1019,966,282,966,282,520" style="stroke:#000000;stroke-width:1.5;"/><line style="stroke:#000000;stroke-width:1.5;" x1="282" x2="328" y1="542.4883" y2="542.4883"/><text fill="#000000" font-family="sans-serif" font-size="14" font-weight="bold" lengthAdjust="spacing" textLength="33" x="286" y="535.5352">MCU</text><!--MD5=[d593face40a440c7ffd31230b15dcb40]
entity Server_Manager_Obj--><rect fill="#FEFECE" filter="url(#fejv9g536fq6k)" height="46.4883" style="stroke:#A80036;stroke-width:1.5;" width="181" x="109.5" y="89"/><rect fill="#FEFECE" height="10" style="stroke:#A80036;stroke-width:1.5;" width="15" x="270.5" y="94"/><rect fill="#FEFECE" height="2" style="stroke:#A80036;stroke-width:1.5;" width="4" x="268.5" y="96"/><rect fill="#FEFECE" height="2" style="stroke:#A80036;stroke-width:1.5;" width="4" x="268.5" y="100"/><text fill="#000000" font-family="sans-serif" font-size="14" lengthAdjust="spacing" textLength="141" x="124.5" y="122.5352">Server_Manager_Obj</text><!--MD5=[029f68b201f944d37967cc98832d0cd5]
entity port--><ellipse cx="65" cy="112" fill="#FEFECE" filter="url(#fejv9g536fq6k)" rx="8" ry="8" style="stroke:#A80036;stroke-width:1.5;"/><text fill="#000000" font-family="sans-serif" font-size="14" lengthAdjust="spacing" textLength="29" x="50.5" y="142.5352">port</text><!--MD5=[6210d540656442020b0f619155fb903e]
entity HTTP Server--><rect fill="#FEFECE" filter="url(#fejv9g536fq6k)" height="46.4883" style="stroke:#A80036;stroke-width:1.5;" width="123" x="93.5" y="196"/><rect fill="#FEFECE" height="10" style="stroke:#A80036;stroke-width:1.5;" width="15" x="196.5" y="201"/><rect fill="#FEFECE" height="2" style="stroke:#A80036;stroke-width:1.5;" width="4" x="194.5" y="203"/><rect fill="#FEFECE" height="2" style="stroke:#A80036;stroke-width:1.5;" width="4" x="194.5" y="207"/><text fill="#000000" font-family="sans-serif" font-size="14" lengthAdjust="spacing" textLength="83" x="108.5" y="229.5352">HTTP Server</text><!--MD5=[1cfca54f5056653ffc487d632251c5d4]
entity Websocket Server--><rect fill="#FEFECE" filter="url(#fejv9g536fq6k)" height="46.4883" style="stroke:#A80036;stroke-width:1.5;" width="160" x="252" y="196"/><rect fill="#FEFECE" height="10" style="stroke:#A80036;stroke-width:1.5;" width="15" x="392" y="201"/><rect fill="#FEFECE" height="2" style="stroke:#A80036;stroke-width:1.5;" width="4" x="390" y="203"/><rect fill="#FEFECE" height="2" style="stroke:#A80036;stroke-width:1.5;" width="4" x="390" y="207"/><text fill="#000000" font-family="sans-serif" font-size="14" lengthAdjust="spacing" textLength="120" x="267" y="229.5352">Websocket Server</text><!--MD5=[bc16f03f05191a35c3c9cf085d751a7e]
entity Game Logic--><polygon fill="#FFFFFF" filter="url(#fejv9g536fq6k)" points="190.5,371,200.5,361,309.5,361,309.5,397.4883,299.5,407.4883,190.5,407.4883,190.5,371" style="stroke:#000000;stroke-width:1.5;"/><line style="stroke:#000000;stroke-width:1.5;" x1="299.5" x2="309.5" y1="371" y2="361"/><line style="stroke:#000000;stroke-width:1.5;" x1="190.5" x2="299.5" y1="371" y2="371"/><line style="stroke:#000000;stroke-width:1.5;" x1="299.5" x2="299.5" y1="371" y2="407.4883"/><text fill="#000000" font-family="sans-serif" font-size="14" lengthAdjust="spacing" textLength="79" x="205.5" y="394.5352">Game Logic</text><!--MD5=[d8f7f003928bb621d39f0d025ec80a2a]
entity WiFi--><rect fill="#FEFECE" filter="url(#fejv9g536fq6k)" height="46.4883" style="stroke:#A80036;stroke-width:1.5;" width="68" x="492" y="361"/><rect fill="#FEFECE" height="10" style="stroke:#A80036;stroke-width:1.5;" width="15" x="540" y="366"/><rect fill="#FEFECE" height="2" style="stroke:#A80036;stroke-width:1.5;" width="4" x="538" y="368"/><rect fill="#FEFECE" height="2" style="stroke:#A80036;stroke-width:1.5;" width="4" x="538" y="372"/><text fill="#000000" font-family="sans-serif" font-size="14" lengthAdjust="spacing" textLength="28" x="507" y="394.5352">WiFi</text><!--MD5=[48665f8a1ce0496b0dadaec58447db46]
entity USART_A--><rect fill="#FEFECE" filter="url(#fejv9g536fq6k)" height="46.4883" style="stroke:#A80036;stroke-width:1.5;" width="103" x="595.5" y="361"/><rect fill="#FEFECE" height="10" style="stroke:#A80036;stroke-width:1.5;" width="15" x="678.5" y="366"/><rect fill="#FEFECE" height="2" style="stroke:#A80036;stroke-width:1.5;" width="4" x="676.5" y="368"/><rect fill="#FEFECE" height="2" style="stroke:#A80036;stroke-width:1.5;" width="4" x="676.5" y="372"/><text fill="#000000" font-family="sans-serif" font-size="14" lengthAdjust="spacing" textLength="63" x="610.5" y="394.5352">USART_A</text><!--MD5=[ae7235171a7eb4c98ddbda92dc6e62fa]
entity USART_B--><rect fill="#FEFECE" filter="url(#fejv9g536fq6k)" height="46.4883" style="stroke:#A80036;stroke-width:1.5;" width="101" x="596.5" y="555"/><rect fill="#FEFECE" height="10" style="stroke:#A80036;stroke-width:1.5;" width="15" x="677.5" y="560"/><rect fill="#FEFECE" height="2" style="stroke:#A80036;stroke-width:1.5;" width="4" x="675.5" y="562"/><rect fill="#FEFECE" height="2" style="stroke:#A80036;stroke-width:1.5;" width="4" x="675.5" y="566"/><text fill="#000000" font-family="sans-serif" font-size="14" lengthAdjust="spacing" textLength="61" x="611.5" y="588.5352">USART_B</text><!--MD5=[f855680bc6c989572ebb25245d27968d]
entity Controller--><rect fill="#FEFECE" filter="url(#fejv9g536fq6k)" height="46.4883" style="stroke:#A80036;stroke-width:1.5;" width="110" x="592" y="662"/><rect fill="#FEFECE" height="10" style="stroke:#A80036;stroke-width:1.5;" width="15" x="682" y="667"/><rect fill="#FEFECE" height="2" style="stroke:#A80036;stroke-width:1.5;" width="4" x="680" y="669"/><rect fill="#FEFECE" height="2" style="stroke:#A80036;stroke-width:1.5;" width="4" x="680" y="673"/><text fill="#000000" font-family="sans-serif" font-size="14" lengthAdjust="spacing" textLength="70" x="607" y="695.5352">Controller</text><!--MD5=[42811681d3549880614161e8bda90a35]
entity ADC--><rect fill="#FEFECE" filter="url(#fejv9g536fq6k)" height="46.4883" style="stroke:#A80036;stroke-width:1.5;" width="70" x="425" y="769"/><rect fill="#FEFECE" height="10" style="stroke:#A80036;stroke-width:1.5;" width="15" x="475" y="774"/><rect fill="#FEFECE" height="2" style="stroke:#A80036;stroke-width:1.5;" width="4" x="473" y="776"/><rect fill="#FEFECE" height="2" style="stroke:#A80036;stroke-width:1.5;" width="4" x="473" y="780"/><text fill="#000000" font-family="sans-serif" font-size="14" lengthAdjust="spacing" textLength="30" x="440" y="802.5352">ADC</text><!--MD5=[1a2b7ca0cf73aca5a2dcecbd567e0db3]
entity Battery--><ellipse cx="329" cy="921" fill="#FEFECE" filter="url(#fejv9g536fq6k)" rx="8" ry="8" style="stroke:#A80036;stroke-width:1.5;"/><text fill="#000000" font-family="sans-serif" font-size="14" lengthAdjust="spacing" textLength="47" x="305.5" y="951.5352">Battery</text><!--MD5=[a003ed2d14cbb5494e5a01c0ccae9ee8]
entity Ship_Positions--><ellipse cx="452" cy="921" fill="#FEFECE" filter="url(#fejv9g536fq6k)" rx="8" ry="8" style="stroke:#A80036;stroke-width:1.5;"/><text fill="#000000" font-family="sans-serif" font-size="14" lengthAdjust="spacing" textLength="99" x="402.5" y="951.5352">Ship_Positions</text><!--MD5=[a9418e92fba3d6054720ec8c5ca78b0a]
entity Player_Moves--><ellipse cx="597" cy="921" fill="#FEFECE" filter="url(#fejv9g536fq6k)" rx="8" ry="8" style="stroke:#A80036;stroke-width:1.5;"/><text fill="#000000" font-family="sans-serif" font-size="14" lengthAdjust="spacing" textLength="91" x="551.5" y="951.5352">Player_Moves</text><!--MD5=[99166ef7b986dc620a0eb0b7893f0066]
entity GPIO--><rect fill="#FEFECE" filter="url(#fejv9g536fq6k)" height="46.4883" style="stroke:#A80036;stroke-width:1.5;" width="73" x="875.5" y="769"/><rect fill="#FEFECE" height="10" style="stroke:#A80036;stroke-width:1.5;" width="15" x="928.5" y="774"/><rect fill="#FEFECE" height="2" style="stroke:#A80036;stroke-width:1.5;" width="4" x="926.5" y="776"/><rect fill="#FEFECE" height="2" style="stroke:#A80036;stroke-width:1.5;" width="4" x="926.5" y="780"/><text fill="#000000" font-family="sans-serif" font-size="14" lengthAdjust="spacing" textLength="33" x="890.5" y="802.5352">GPIO</text><!--MD5=[1240995e1a5c7946ae238581d45e25f6]
entity DAC--><rect fill="#FEFECE" filter="url(#fejv9g536fq6k)" height="46.4883" style="stroke:#A80036;stroke-width:1.5;" width="70" x="675" y="769"/><rect fill="#FEFECE" height="10" style="stroke:#A80036;stroke-width:1.5;" width="15" x="725" y="774"/><rect fill="#FEFECE" height="2" style="stroke:#A80036;stroke-width:1.5;" width="4" x="723" y="776"/><rect fill="#FEFECE" height="2" style="stroke:#A80036;stroke-width:1.5;" width="4" x="723" y="780"/><text fill="#000000" font-family="sans-serif" font-size="14" lengthAdjust="spacing" textLength="30" x="690" y="802.5352">DAC</text><!--MD5=[9b92dd3706ff9836cd497e0705c6a203]
entity SPI--><rect fill="#FEFECE" filter="url(#fejv9g536fq6k)" height="46.4883" style="stroke:#A80036;stroke-width:1.5;" width="60" x="780" y="769"/><rect fill="#FEFECE" height="10" style="stroke:#A80036;stroke-width:1.5;" width="15" x="820" y="774"/><rect fill="#FEFECE" height="2" style="stroke:#A80036;stroke-width:1.5;" width="4" x="818" y="776"/><rect fill="#FEFECE" height="2" style="stroke:#A80036;stroke-width:1.5;" width="4" x="818" y="780"/><text fill="#000000" font-family="sans-serif" font-size="14" lengthAdjust="spacing" textLength="20" x="795" y="802.5352">SPI</text><!--MD5=[bab580992f41bab26db402506745a8f0]
entity LED_GRID--><ellipse cx="963" cy="921" fill="#FEFECE" filter="url(#fejv9g536fq6k)" rx="8" ry="8" style="stroke:#A80036;stroke-width:1.5;"/><text fill="#000000" font-family="sans-serif" font-size="14" lengthAdjust="spacing" textLength="65" x="930.5" y="951.5352">LED_GRID</text><!--MD5=[d547d15fb96b3e4456d04d63ff379a3f]
entity Speaker--><ellipse cx="720" cy="921" fill="#FEFECE" filter="url(#fejv9g536fq6k)" rx="8" ry="8" style="stroke:#A80036;stroke-width:1.5;"/><text fill="#000000" font-family="sans-serif" font-size="14" lengthAdjust="spacing" textLength="55" x="692.5" y="951.5352">Speaker</text><!--MD5=[f20619631b96249722c9010113f58d1c]
entity LCD_Display--><ellipse cx="839" cy="921" fill="#FEFECE" filter="url(#fejv9g536fq6k)" rx="8" ry="8" style="stroke:#A80036;stroke-width:1.5;"/><text fill="#000000" font-family="sans-serif" font-size="14" lengthAdjust="spacing" textLength="83" x="797.5" y="951.5352">LCD_Display</text><!--MD5=[06897cee63e837a223c4d3401301b6cb]
entity Inputs--><polygon fill="#FFFFFF" filter="url(#fejv9g536fq6k)" points="433.5,672,443.5,662,516.5,662,516.5,698.4883,506.5,708.4883,433.5,708.4883,433.5,672" style="stroke:#000000;stroke-width:1.5;"/><line style="stroke:#000000;stroke-width:1.5;" x1="506.5" x2="516.5" y1="672" y2="662"/><line style="stroke:#000000;stroke-width:1.5;" x1="433.5" x2="506.5" y1="672" y2="672"/><line style="stroke:#000000;stroke-width:1.5;" x1="506.5" x2="506.5" y1="672" y2="708.4883"/><text fill="#000000" font-family="sans-serif" font-size="14" lengthAdjust="spacing" textLength="43" x="448.5" y="695.5352">Inputs</text><!--MD5=[1d274fcf781766d1e3a886cdbf031160]
entity Outputs--><polygon fill="#FFFFFF" filter="url(#fejv9g536fq6k)" points="757.5,672,767.5,662,852.5,662,852.5,698.4883,842.5,708.4883,757.5,708.4883,757.5,672" style="stroke:#000000;stroke-width:1.5;"/><line style="stroke:#000000;stroke-width:1.5;" x1="842.5" x2="852.5" y1="672" y2="662"/><line style="stroke:#000000;stroke-width:1.5;" x1="757.5" x2="842.5" y1="672" y2="672"/><line style="stroke:#000000;stroke-width:1.5;" x1="842.5" x2="842.5" y1="672" y2="708.4883"/><text fill="#000000" font-family="sans-serif" font-size="14" lengthAdjust="spacing" textLength="55" x="772.5" y="695.5352">Outputs</text><!--MD5=[c06cece654f1555ac4369ed2eed38633]
link port to Server_Manager_Obj--><path d="M74.23,112 C85.86,112 97.48,112 109.11,112 " fill="none" id="port-Server_Manager_Obj" style="stroke:#A80036;stroke-width:1.0;"/><!--MD5=[dde2cf7a5c03bbce8bc6375ccbab540c]
link Server_Manager_Obj to HTTP Server--><path d="M190.57,135.01 C183.59,151.28 174.06,173.53 166.62,190.9 " fill="none" id="Server_Manager_Obj-to-HTTP Server" style="stroke:#A80036;stroke-width:1.0;"/><polygon fill="#A80036" points="164.58,195.66,171.8094,188.9715,166.5548,191.0665,164.4598,185.8119,164.58,195.66" style="stroke:#A80036;stroke-width:1.0;"/><!--MD5=[777e5428be3295c0db384d4f73844876]
link Server_Manager_Obj to Websocket Server--><path d="M227.67,135.01 C248.74,151.77 277.78,174.87 299.87,192.44 " fill="none" id="Server_Manager_Obj-to-Websocket Server" style="stroke:#A80036;stroke-width:1.0;"/><polygon fill="#A80036" points="303.91,195.66,299.3576,186.9264,299.9973,192.547,294.3767,193.1867,303.91,195.66" style="stroke:#A80036;stroke-width:1.0;"/><!--MD5=[728bd4ac41f64591ba5d4ddfc458d34c]
link Server_Manager_Obj to Lobby--><path d="M144.92,135 C119.04,148.46 90.7,168.46 76,196 C55.085,235.17 73.895,281.0825 98.3925,317.6113 C110.6413,335.8756 124.3119,351.7941 135.1497,363.3508 C137.8591,366.24 140.3915,368.8565 142.6804,371.169 C143.8249,372.3252 144.9084,373.4054 145.9228,374.4057 C146.1764,374.6558 146.4256,374.9008 146.6704,375.1408 " fill="none" id="Server_Manager_Obj-to-Lobby" style="stroke:#A80036;stroke-width:1.0;"/><polygon fill="#A80036" points="146.6704,375.1408,143.0439,365.9839,143.1,371.6405,137.4434,371.6966,146.6704,375.1408" style="stroke:#A80036;stroke-width:1.0;"/><!--MD5=[3a86fcd06f5e46b34ba366c5b12a9e25]
link Websocket Server to Lobby--><path d="M297.92,242.07 C273.45,257.1 239.23,276.46 207,289 C192.94,294.47 184.56,286.22 174,297 C170.6825,300.3863 167.8898,304.2134 165.5436,308.3251 C164.957,309.353 164.3983,310.3987 163.8663,311.4598 C163.7333,311.725 163.602,311.9913 163.4723,312.2584 C163.4075,312.392 163.3431,312.5258 163.279,312.6598 " fill="none" id="Websocket Server-to-Lobby" style="stroke:#A80036;stroke-width:1.0;"/><polygon fill="#A80036" points="163.279,312.6598,170.7676,306.2628,165.4342,308.1481,163.5489,302.8146,163.279,312.6598" style="stroke:#A80036;stroke-width:1.0;"/><text fill="#000000" font-family="sans-serif" font-size="13" lengthAdjust="spacing" textLength="42" x="244" y="285.5684">handle</text><!--MD5=[4e35129da1a0a7f86c889a9b511d0a21]
link HTTP Server to Lobby--><path d="M155,242.32 C155,253.3075 155,267.4069 155,282.4211 C155,289.9282 155,297.664 155,305.3539 C155,307.2764 155,309.196 155,311.1085 C155,311.5866 155,312.0642 155,312.5414 " fill="none" id="HTTP Server-to-Lobby" style="stroke:#A80036;stroke-width:1.0;"/><polygon fill="#A80036" points="155,312.5414,159,303.5414,155,307.5414,151,303.5414,155,312.5414" style="stroke:#A80036;stroke-width:1.0;"/><text fill="#000000" font-family="sans-serif" font-size="13" lengthAdjust="spacing" textLength="42" x="156" y="285.5684">handle</text><!--MD5=[28d7058251b3225b6a0011e167bb5b2c]
link WiFi to USART_A--><path d="M560.03,384 C571.81,384 583.59,384 595.36,384 " fill="none" id="WiFi-USART_A" style="stroke:#A80036;stroke-width:1.0;"/><!--MD5=[539dc863f6d99da338c7847da0b9f841]
link USART_B to Controller--><path d="M647,601.01 C647,617.14 647,639.15 647,656.45 " fill="none" id="USART_B-to-Controller" style="stroke:#A80036;stroke-width:1.0;"/><polygon fill="#A80036" points="647,661.66,651,652.66,647,656.66,643,652.66,647,661.66" style="stroke:#A80036;stroke-width:1.0;"/><!--MD5=[c619807c796aadacc0789b5ab23c5b12]
link Inputs to Controller--><path d="M516.66,685 C539.93,685 563.2,685 586.48,685 " fill="none" id="Inputs-to-Controller" style="stroke:#A80036;stroke-width:1.0;"/><polygon fill="#A80036" points="591.76,685,582.76,681,586.76,685,582.76,689,591.76,685" style="stroke:#A80036;stroke-width:1.0;"/><!--MD5=[79ea545ac41de768699357b688d3c529]
link Controller to Outputs--><path d="M702.24,685 C718.85,685 735.46,685 752.08,685 " fill="none" id="Controller-to-Outputs" style="stroke:#A80036;stroke-width:1.0;"/><polygon fill="#A80036" points="757.23,685,748.23,681,752.23,685,748.23,689,757.23,685" style="stroke:#A80036;stroke-width:1.0;"/><!--MD5=[3f59a00b3cff5878a1b1e30ae344e55e]
reverse link Inputs to ADC--><path d="M471.12,713.19 C468.65,730.43 465.51,752.44 463.19,768.66 " fill="none" id="Inputs-backto-ADC" style="stroke:#A80036;stroke-width:1.0;"/><polygon fill="#A80036" points="471.86,708.01,466.6139,716.3454,471.1449,712.9586,474.5317,717.4896,471.86,708.01" style="stroke:#A80036;stroke-width:1.0;"/><!--MD5=[411053a999ecde3424ad9c4c52e4c1bf]
reverse link ADC to Battery--><path d="M420.16,814.55 C406.55,823 391.8,833.44 380,845 C358.63,865.93 340.89,897.11 333.16,911.79 " fill="none" id="ADC-backto-Battery" style="stroke:#A80036;stroke-width:1.0;"/><polygon fill="#A80036" points="424.72,811.77,414.9543,813.0473,420.4529,814.3761,419.1241,819.8747,424.72,811.77" style="stroke:#A80036;stroke-width:1.0;"/><text fill="#000000" font-family="sans-serif" font-size="13" lengthAdjust="spacing" textLength="65" x="381" y="858.5684">monitored</text><!--MD5=[091b82db0d192953deebff73cbadd4cf]
reverse link ADC to Ship_Positions--><path d="M458.28,820.36 C456.44,849.44 453.66,893.66 452.52,911.8 " fill="none" id="ADC-backto-Ship_Positions" style="stroke:#A80036;stroke-width:1.0;"/><polygon fill="#A80036" points="458.61,815.12,454.0517,823.8505,458.2954,820.1101,462.0359,824.3538,458.61,815.12" style="stroke:#A80036;stroke-width:1.0;"/><text fill="#000000" font-family="sans-serif" font-size="13" lengthAdjust="spacing" textLength="75" x="457" y="858.5684">multiplexed</text><!--MD5=[816eabd742002a25100ea571bf440027]
reverse link ADC to Player_Moves--><path d="M499.34,814.32 C513.29,822.87 528.59,833.44 541,845 C563.59,866.05 583.49,897.17 592.26,911.81 " fill="none" id="ADC-backto-Player_Moves" style="stroke:#A80036;stroke-width:1.0;"/><polygon fill="#A80036" points="495.06,811.74,500.6878,819.8226,499.3373,814.3293,504.8306,812.9789,495.06,811.74" style="stroke:#A80036;stroke-width:1.0;"/><text fill="#000000" font-family="sans-serif" font-size="13" lengthAdjust="spacing" textLength="75" x="557" y="858.5684">multiplexed</text><!--MD5=[0fc73ddcfe3e2f99e644450acc33bdfa]
link Outputs to GPIO--><path d="M827.43,708.01 C844.29,724.56 867.46,747.29 885.28,764.78 " fill="none" id="Outputs-to-GPIO" style="stroke:#A80036;stroke-width:1.0;"/><polygon fill="#A80036" points="889.23,768.66,885.6018,759.5038,885.6589,765.1604,880.0024,765.2175,889.23,768.66" style="stroke:#A80036;stroke-width:1.0;"/><!--MD5=[76620b8d31700bca44c4d8b3d247d9f4]
link Outputs to DAC--><path d="M785.08,708.01 C770.11,724.56 749.54,747.29 733.72,764.78 " fill="none" id="Outputs-to-DAC" style="stroke:#A80036;stroke-width:1.0;"/><polygon fill="#A80036" points="730.22,768.66,739.2224,764.6653,733.5727,764.9506,733.2874,759.301,730.22,768.66" style="stroke:#A80036;stroke-width:1.0;"/><!--MD5=[dcd23c59ff8ad903e8090f11e9850fb5]
link Outputs to SPI--><path d="M806.05,708.01 C806.82,724.14 807.86,746.15 808.69,763.45 " fill="none" id="Outputs-to-SPI" style="stroke:#A80036;stroke-width:1.0;"/><polygon fill="#A80036" points="808.94,768.66,812.5248,759.4867,808.7117,763.6652,804.5332,759.8521,808.94,768.66" style="stroke:#A80036;stroke-width:1.0;"/><!--MD5=[97f03d8aa1f5f0ab9185f2e21716856d]
link GPIO to LED_GRID--><path d="M919.58,815.22 C924.34,828.82 930.74,846.53 937,862 C943.37,877.75 951.49,895.54 956.94,907.22 " fill="none" id="GPIO-to-LED_GRID" style="stroke:#A80036;stroke-width:1.0;"/><polygon fill="#A80036" points="959.1,911.82,958.8796,901.9736,956.9676,907.2975,951.6436,905.3855,959.1,911.82" style="stroke:#A80036;stroke-width:1.0;"/><text fill="#000000" font-family="sans-serif" font-size="13" lengthAdjust="spacing" textLength="96" x="938" y="858.5684">shift registered</text><!--MD5=[64198675b55b4f08379d9249c47b68c6]
link DAC to Speaker--><path d="M711.74,815.12 C713.83,841.59 717.25,885.05 718.96,906.77 " fill="none" id="DAC-to-Speaker" style="stroke:#A80036;stroke-width:1.0;"/><polygon fill="#A80036" points="719.35,911.8,722.6439,902.5183,718.9643,906.8149,714.6677,903.1353,719.35,911.8" style="stroke:#A80036;stroke-width:1.0;"/><text fill="#000000" font-family="sans-serif" font-size="13" lengthAdjust="spacing" textLength="59" x="716" y="858.5684">amplified</text><!--MD5=[20957f7eda0050b30df3a35451303d27]
link SPI to LCD_Display--><path d="M815.05,815.12 C821.1,841.59 831.02,885.05 835.98,906.77 " fill="none" id="SPI-to-LCD_Display" style="stroke:#A80036;stroke-width:1.0;"/><polygon fill="#A80036" points="837.13,911.8,839.0225,902.1347,836.0151,906.9259,831.2239,903.9185,837.13,911.8" style="stroke:#A80036;stroke-width:1.0;"/><!--MD5=[4fb7036d2bd1b85f3d1cf7ea8c064d37]
link USART_A to USART_B--><path d="M647,412.46 C647,449.02 647,513.32 647,549.77 " fill="none" id="USART_A-USART_B" style="stroke:#A80036;stroke-width:1.0;"/><polygon fill="#A80036" points="647,554.94,651,545.94,647,549.94,643,545.94,647,554.94" style="stroke:#A80036;stroke-width:1.0;"/><polygon fill="#A80036" points="647,407.02,643,416.02,647,412.02,651,416.02,647,407.02" style="stroke:#A80036;stroke-width:1.0;"/><!--MD5=[56a392c16789bf45411dcc1b7bfbbb2e]
link Websocket Server to WiFi--><path d="M362.59,245.71 C399.07,276.35 459.63,327.24 495.89,357.7 " fill="none" id="Websocket Server-WiFi" style="stroke:#A80036;stroke-width:1.0;"/><polygon fill="#A80036" points="499.75,360.95,495.4291,352.0996,495.9206,357.735,490.2852,358.2266,499.75,360.95" style="stroke:#A80036;stroke-width:1.0;"/><polygon fill="#A80036" points="358.57,242.32,362.8909,251.1704,362.3994,245.535,368.0348,245.0434,358.57,242.32" style="stroke:#A80036;stroke-width:1.0;"/><!--MD5=[9db0acdb79ce9ec9a828d8cfa78887de]
@startuml System_Class_Diagram
package "Server" {
    node "Server_Manager" {
        node "Lobby" {
            node "Game Logic" {
            }
        }
        [Server_Manager_Obj] -left- port
        [Server_Manager_Obj] -down-> [HTTP Server]
        [Server_Manager_Obj] -down-> [Websocket Server]
        [Server_Manager_Obj] -right-> Lobby

    }
    
    [Websocket Server] - -> Lobby : handle
    [HTTP Server] - -> Lobby : handle
}

package "Client" {
    [WiFi] - [USART_A]
}

package "MCU" {
    [USART_B] - -> [Controller]

    [Controller] <-left- Inputs
    [Controller] -right-> Outputs

    node "Inputs" {
    }
    Inputs <-down- [ADC]

    [ADC] <-down- Battery : monitored
    [ADC] <-down- Ship_Positions : multiplexed
    [ADC] <-down- Player_Moves : multiplexed

    node "Outputs" {
    }
    Outputs -down-> [GPIO]
    Outputs -down-> [DAC]
    Outputs -down-> [SPI]

    [GPIO] -down-> LED_GRID : shift registered
    [DAC] -down-> Speaker : amplified
    [SPI] -down-> LCD_Display
}

[USART_A] <- -> [USART_B]
[Websocket Server] <- -> [WiFi]
@enduml

PlantUML version 1.2021.7(Sun May 23 08:40:07 EDT 2021)
(GPL source distribution)
Java Runtime: OpenJDK Runtime Environment
JVM: OpenJDK 64-Bit Server VM
Default Encoding: UTF-8
Language: en
Country: US
--></g></svg>